<svg width="24" height="24" viewBox="0 0 24 24" fill="none" xmlns="http://www.w3.org/2000/svg">
<g clip-path="url(#clip0_339_12411)">
<path d="M22.7174 16.5966H7.44988L8.21646 14.9358L20.9535 14.9112C21.3842 14.9112 21.7534 14.584 21.8303 14.1313L23.5942 3.62898C23.6404 3.35354 23.5712 3.06991 23.4019 2.85447C23.3183 2.74844 23.214 2.66303 23.0962 2.60416C22.9785 2.5453 22.8501 2.51439 22.72 2.51357L6.51665 2.4563L6.37821 1.7636C6.29104 1.3218 5.91672 1 5.49112 1H1.53003C1.29 1 1.0598 1.10143 0.890076 1.28196C0.720351 1.4625 0.625 1.70737 0.625 1.96269C0.625 2.21801 0.720351 2.46287 0.890076 2.64341C1.0598 2.82395 1.29 2.92538 1.53003 2.92538H4.75787L5.36293 5.98525L6.85251 13.6567L4.93478 16.9866C4.83519 17.1296 4.7752 17.2994 4.76161 17.4767C4.74801 17.6541 4.78136 17.832 4.85786 17.9902C5.01169 18.3147 5.32191 18.5193 5.66546 18.5193H7.27554C6.93229 19.0042 6.74689 19.5949 6.74739 20.2019C6.74739 21.7455 7.92675 23 9.37787 23C10.829 23 12.0083 21.7455 12.0083 20.2019C12.0083 19.5938 11.8186 19.002 11.4802 18.5193H15.6105C15.2673 19.0042 15.0819 19.5949 15.0824 20.2019C15.0824 21.7455 16.2617 23 17.7128 23C19.164 23 20.3433 21.7455 20.3433 20.2019C20.3433 19.5938 20.1536 19.002 19.8152 18.5193H22.72C23.2174 18.5193 23.625 18.0884 23.625 17.5566C23.6235 17.3015 23.5272 17.0575 23.3572 16.8776C23.1872 16.6978 22.9572 16.5968 22.7174 16.5966V16.5966ZM6.89353 4.35441L21.656 4.40622L20.21 13.0186L8.61385 13.0404L6.89353 4.35441ZM9.37787 21.0637C8.93177 21.0637 8.5677 20.6765 8.5677 20.2019C8.5677 19.7274 8.93177 19.3402 9.37787 19.3402C9.82397 19.3402 10.188 19.7274 10.188 20.2019C10.188 20.4305 10.1027 20.6497 9.95074 20.8113C9.79881 20.9729 9.59274 21.0637 9.37787 21.0637V21.0637ZM17.7128 21.0637C17.2667 21.0637 16.9027 20.6765 16.9027 20.2019C16.9027 19.7274 17.2667 19.3402 17.7128 19.3402C18.1589 19.3402 18.523 19.7274 18.523 20.2019C18.523 20.4305 18.4376 20.6497 18.2857 20.8113C18.1338 20.9729 17.9277 21.0637 17.7128 21.0637V21.0637Z" fill="#F10250"/>
</g>
<defs>
<clipPath id="clip0_339_12411">
<rect width="23" height="24" fill="white" transform="translate(0.625)"/>
</clipPath>
</defs>
</svg>
