<svg width="25" height="24" viewBox="0 0 25 24" fill="none" xmlns="http://www.w3.org/2000/svg">
<g clip-path="url(#clip0_212_1036)">
<path d="M21.125 4.5C21.5228 4.5 21.9044 4.65804 22.1857 4.93934C22.467 5.22064 22.625 5.60218 22.625 6V18C22.625 18.3978 22.467 18.7794 22.1857 19.0607C21.9044 19.342 21.5228 19.5 21.125 19.5H3.125C2.72718 19.5 2.34564 19.342 2.06434 19.0607C1.78304 18.7794 1.625 18.3978 1.625 18V6C1.625 5.60218 1.78304 5.22064 2.06434 4.93934C2.34564 4.65804 2.72718 4.5 3.125 4.5H21.125ZM3.125 3C2.32935 3 1.56629 3.31607 1.00368 3.87868C0.441071 4.44129 0.125 5.20435 0.125 6L0.125 18C0.125 18.7956 0.441071 19.5587 1.00368 20.1213C1.56629 20.6839 2.32935 21 3.125 21H21.125C21.9206 21 22.6837 20.6839 23.2463 20.1213C23.8089 19.5587 24.125 18.7956 24.125 18V6C24.125 5.20435 23.8089 4.44129 23.2463 3.87868C22.6837 3.31607 21.9206 3 21.125 3H3.125Z" fill="#F10250"/>
<path d="M3.125 8.25C3.125 8.05109 3.20402 7.86032 3.34467 7.71967C3.48532 7.57902 3.67609 7.5 3.875 7.5H6.875C7.07391 7.5 7.26468 7.57902 7.40533 7.71967C7.54598 7.86032 7.625 8.05109 7.625 8.25V9.75C7.625 9.94891 7.54598 10.1397 7.40533 10.2803C7.26468 10.421 7.07391 10.5 6.875 10.5H3.875C3.67609 10.5 3.48532 10.421 3.34467 10.2803C3.20402 10.1397 3.125 9.94891 3.125 9.75V8.25ZM3.125 12.75C3.125 12.5511 3.20402 12.3603 3.34467 12.2197C3.48532 12.079 3.67609 12 3.875 12H11.375C11.5739 12 11.7647 12.079 11.9053 12.2197C12.046 12.3603 12.125 12.5511 12.125 12.75C12.125 12.9489 12.046 13.1397 11.9053 13.2803C11.7647 13.421 11.5739 13.5 11.375 13.5H3.875C3.67609 13.5 3.48532 13.421 3.34467 13.2803C3.20402 13.1397 3.125 12.9489 3.125 12.75ZM3.125 15.75C3.125 15.5511 3.20402 15.3603 3.34467 15.2197C3.48532 15.079 3.67609 15 3.875 15H5.375C5.57391 15 5.76468 15.079 5.90533 15.2197C6.04598 15.3603 6.125 15.5511 6.125 15.75C6.125 15.9489 6.04598 16.1397 5.90533 16.2803C5.76468 16.421 5.57391 16.5 5.375 16.5H3.875C3.67609 16.5 3.48532 16.421 3.34467 16.2803C3.20402 16.1397 3.125 15.9489 3.125 15.75ZM7.625 15.75C7.625 15.5511 7.70402 15.3603 7.84467 15.2197C7.98532 15.079 8.17609 15 8.375 15H9.875C10.0739 15 10.2647 15.079 10.4053 15.2197C10.546 15.3603 10.625 15.5511 10.625 15.75C10.625 15.9489 10.546 16.1397 10.4053 16.2803C10.2647 16.421 10.0739 16.5 9.875 16.5H8.375C8.17609 16.5 7.98532 16.421 7.84467 16.2803C7.70402 16.1397 7.625 15.9489 7.625 15.75ZM12.125 15.75C12.125 15.5511 12.204 15.3603 12.3447 15.2197C12.4853 15.079 12.6761 15 12.875 15H14.375C14.5739 15 14.7647 15.079 14.9053 15.2197C15.046 15.3603 15.125 15.5511 15.125 15.75C15.125 15.9489 15.046 16.1397 14.9053 16.2803C14.7647 16.421 14.5739 16.5 14.375 16.5H12.875C12.6761 16.5 12.4853 16.421 12.3447 16.2803C12.204 16.1397 12.125 15.9489 12.125 15.75ZM16.625 15.75C16.625 15.5511 16.704 15.3603 16.8447 15.2197C16.9853 15.079 17.1761 15 17.375 15H18.875C19.0739 15 19.2647 15.079 19.4053 15.2197C19.546 15.3603 19.625 15.5511 19.625 15.75C19.625 15.9489 19.546 16.1397 19.4053 16.2803C19.2647 16.421 19.0739 16.5 18.875 16.5H17.375C17.1761 16.5 16.9853 16.421 16.8447 16.2803C16.704 16.1397 16.625 15.9489 16.625 15.75Z" fill="#F10250"/>
</g>
<defs>
<clipPath id="clip0_212_1036">
<rect width="24" height="24" fill="white" transform="translate(0.125)"/>
</clipPath>
</defs>
</svg>
