<svg width="25" height="24" viewBox="0 0 25 24" fill="none" xmlns="http://www.w3.org/2000/svg">
<path d="M8.88201 2.385C7.45339 2.77872 6.03448 3.20685 4.62651 3.669C4.49794 3.71065 4.38366 3.78756 4.29667 3.89099C4.20969 3.99442 4.1535 4.1202 4.13451 4.254C3.30351 10.4895 5.22351 15.039 7.51401 18.036C8.48378 19.3176 9.64012 20.4466 10.9445 21.3855C11.4635 21.7515 11.9225 22.0155 12.284 22.185C12.464 22.2705 12.611 22.3275 12.7235 22.362C12.7727 22.3793 12.8234 22.3918 12.875 22.3995C12.926 22.3912 12.9761 22.3787 13.025 22.362C13.139 22.3275 13.286 22.2705 13.466 22.185C13.826 22.0155 14.2865 21.75 14.8055 21.3855C16.1099 20.4466 17.2662 19.3176 18.236 18.036C20.5265 15.0405 22.4465 10.4895 21.6155 4.254C21.5967 4.12014 21.5406 3.99427 21.4536 3.89082C21.3665 3.78736 21.2522 3.71049 21.1235 3.669C20.147 3.3495 18.4985 2.829 16.868 2.3865C15.203 1.935 13.6715 1.6005 12.875 1.6005C12.08 1.6005 10.547 1.935 8.88201 2.3865V2.385ZM8.48301 0.84C10.1105 0.3975 11.84 0 12.875 0C13.91 0 15.6395 0.3975 17.267 0.84C18.932 1.29 20.6105 1.8225 21.5975 2.145C22.0102 2.28128 22.376 2.5312 22.653 2.86605C22.93 3.20091 23.107 3.60711 23.1635 4.038C24.0575 10.7535 21.983 15.7305 19.466 19.023C18.3987 20.4315 17.126 21.6718 15.6905 22.7025C15.1941 23.0592 14.6682 23.3728 14.1185 23.64C13.6985 23.838 13.247 24 12.875 24C12.503 24 12.053 23.838 11.6315 23.64C11.0818 23.3728 10.5559 23.0592 10.0595 22.7025C8.62405 21.6717 7.35138 20.4314 6.28401 19.023C3.76701 15.7305 1.69251 10.7535 2.58651 4.038C2.64304 3.60711 2.81997 3.20091 3.09698 2.86605C3.37399 2.5312 3.73985 2.28128 4.15251 2.145C5.5853 1.67521 7.02922 1.24009 8.48301 0.84V0.84Z" fill="#F10250"/>
<path d="M12.875 6.75C13.0739 6.75 13.2647 6.82902 13.4053 6.96967C13.546 7.11032 13.625 7.30109 13.625 7.5V9.75H15.875C16.0739 9.75 16.2647 9.82902 16.4053 9.96967C16.546 10.1103 16.625 10.3011 16.625 10.5C16.625 10.6989 16.546 10.8897 16.4053 11.0303C16.2647 11.171 16.0739 11.25 15.875 11.25H13.625V13.5C13.625 13.6989 13.546 13.8897 13.4053 14.0303C13.2647 14.171 13.0739 14.25 12.875 14.25C12.6761 14.25 12.4853 14.171 12.3447 14.0303C12.204 13.8897 12.125 13.6989 12.125 13.5V11.25H9.875C9.67609 11.25 9.48532 11.171 9.34467 11.0303C9.20402 10.8897 9.125 10.6989 9.125 10.5C9.125 10.3011 9.20402 10.1103 9.34467 9.96967C9.48532 9.82902 9.67609 9.75 9.875 9.75H12.125V7.5C12.125 7.30109 12.204 7.11032 12.3447 6.96967C12.4853 6.82902 12.6761 6.75 12.875 6.75V6.75Z" fill="#F10250"/>
</svg>
