<svg width="25" height="24" viewBox="0 0 25 24" fill="none" xmlns="http://www.w3.org/2000/svg">
<g clip-path="url(#clip0_339_12413)">
<path fill-rule="evenodd" clip-rule="evenodd" d="M0.875 0H2.375V22.5H24.875V24H0.875V0ZM15.875 5.25C15.875 5.05109 15.954 4.86032 16.0947 4.71967C16.2353 4.57902 16.4261 4.5 16.625 4.5H22.625C22.8239 4.5 23.0147 4.57902 23.1553 4.71967C23.296 4.86032 23.375 5.05109 23.375 5.25V11.25C23.375 11.4489 23.296 11.6397 23.1553 11.7803C23.0147 11.921 22.8239 12 22.625 12C22.4261 12 22.2353 11.921 22.0947 11.7803C21.954 11.6397 21.875 11.4489 21.875 11.25V7.35L16.4555 13.9755C16.3892 14.0565 16.3066 14.1227 16.2131 14.1698C16.1197 14.217 16.0174 14.244 15.9128 14.2493C15.8082 14.2545 15.7038 14.2378 15.606 14.2002C15.5083 14.1626 15.4196 14.105 15.3455 14.031L11.465 10.1505L5.981 17.691C5.86103 17.8435 5.68661 17.9437 5.49438 17.9703C5.30214 17.9969 5.10707 17.948 4.95016 17.8338C4.79324 17.7196 4.6867 17.549 4.65292 17.3579C4.61913 17.1668 4.66074 16.9701 4.769 16.809L10.769 8.559C10.8327 8.47127 10.9146 8.39839 11.0092 8.34538C11.1038 8.29237 11.2087 8.26049 11.3168 8.25194C11.4248 8.24338 11.5335 8.25836 11.6352 8.29583C11.7369 8.3333 11.8293 8.39238 11.906 8.469L15.8195 12.384L21.0425 6H16.625C16.4261 6 16.2353 5.92098 16.0947 5.78033C15.954 5.63968 15.875 5.44891 15.875 5.25Z" fill="#F10250"/>
</g>
<defs>
<clipPath id="clip0_339_12413">
<rect width="24" height="24" fill="white" transform="translate(0.875)"/>
</clipPath>
</defs>
</svg>
