<svg width="25" height="24" viewBox="0 0 25 24" fill="none" xmlns="http://www.w3.org/2000/svg">
<g clip-path="url(#clip0_339_12392)">
<path fill-rule="evenodd" clip-rule="evenodd" d="M17.125 22.5C18.7163 22.5 20.2424 21.8679 21.3676 20.7426C22.4929 19.6174 23.125 18.0913 23.125 16.5C23.125 14.9087 22.4929 13.3826 21.3676 12.2574C20.2424 11.1321 18.7163 10.5 17.125 10.5C15.5337 10.5 14.0076 11.1321 12.8824 12.2574C11.7571 13.3826 11.125 14.9087 11.125 16.5C11.125 18.0913 11.7571 19.6174 12.8824 20.7426C14.0076 21.8679 15.5337 22.5 17.125 22.5V22.5ZM24.625 16.5C24.625 18.4891 23.8348 20.3968 22.4283 21.8033C21.0218 23.2098 19.1141 24 17.125 24C15.1359 24 13.2282 23.2098 11.8217 21.8033C10.4152 20.3968 9.625 18.4891 9.625 16.5C9.625 14.5109 10.4152 12.6032 11.8217 11.1967C13.2282 9.79018 15.1359 9 17.125 9C19.1141 9 21.0218 9.79018 22.4283 11.1967C23.8348 12.6032 24.625 14.5109 24.625 16.5V16.5Z" fill="#F10250"/>
<path d="M14.7818 17.916C14.8523 18.81 15.5588 19.506 16.8263 19.59V20.25H17.3888V19.5855C18.7013 19.494 19.4678 18.792 19.4678 17.775C19.4678 16.848 18.8828 16.371 17.8328 16.125L17.3888 16.02V14.22C17.9528 14.2845 18.3098 14.592 18.3953 15.018H19.3823C19.3118 14.1555 18.5723 13.482 17.3888 13.4085V12.75H16.8263V13.425C15.7058 13.5345 14.9438 14.208 14.9438 15.162C14.9438 16.005 15.5108 16.542 16.4543 16.761L16.8263 16.8525V18.7605C16.2503 18.6735 15.8678 18.3555 15.7823 17.916H14.7803H14.7818ZM16.8218 15.885C16.2683 15.7575 15.9683 15.495 15.9683 15.102C15.9683 14.661 16.2923 14.331 16.8263 14.235V15.885H16.8218V15.885ZM17.4698 17.004C18.1433 17.16 18.4523 17.412 18.4523 17.8575C18.4523 18.366 18.0668 18.714 17.3888 18.7785V16.986L17.4698 17.004V17.004Z" fill="#F10250"/>
<path d="M2.125 0C1.72718 0 1.34564 0.158035 1.06434 0.43934C0.783035 0.720644 0.625 1.10218 0.625 1.5L0.625 13.5C0.625 13.8978 0.783035 14.2794 1.06434 14.5607C1.34564 14.842 1.72718 15 2.125 15H8.2495C8.3365 14.484 8.467 13.983 8.6365 13.5H5.125C5.125 12.7044 4.80893 11.9413 4.24632 11.3787C3.68371 10.8161 2.92065 10.5 2.125 10.5V4.5C2.92065 4.5 3.68371 4.18393 4.24632 3.62132C4.80893 3.05871 5.125 2.29565 5.125 1.5H20.125C20.125 2.29565 20.4411 3.05871 21.0037 3.62132C21.5663 4.18393 22.3294 4.5 23.125 4.5V9.792C23.695 10.302 24.2005 10.884 24.625 11.523V1.5C24.625 1.10218 24.467 0.720644 24.1857 0.43934C23.9044 0.158035 23.5228 0 23.125 0L2.125 0Z" fill="#F10250"/>
<path d="M15.622 7.62449L15.625 7.49999C15.6247 6.98337 15.491 6.47559 15.2368 6.02583C14.9827 5.57606 14.6167 5.19955 14.1743 4.93276C13.7319 4.66597 13.2281 4.51795 12.7117 4.50302C12.1953 4.4881 11.6838 4.60678 11.2267 4.84757C10.7696 5.08836 10.3825 5.4431 10.1028 5.87743C9.82307 6.31177 9.66026 6.81098 9.63011 7.32671C9.59997 7.84244 9.70351 8.35722 9.93072 8.82119C10.1579 9.28515 10.5011 9.68258 10.927 9.97499C12.2226 8.74089 13.8576 7.92234 15.622 7.62449V7.62449Z" fill="#F10250"/>
</g>
<defs>
<clipPath id="clip0_339_12392">
<rect width="24" height="24" fill="white" transform="translate(0.625)"/>
</clipPath>
</defs>
</svg>
