<svg width="30" height="24" viewBox="0 0 30 24" fill="none" xmlns="http://www.w3.org/2000/svg">
<path d="M26 2C26.4807 2 26.9417 2.21071 27.2816 2.58579C27.6215 2.96086 27.8125 3.46957 27.8125 4V20C27.8125 20.5304 27.6215 21.0391 27.2816 21.4142C26.9417 21.7893 26.4807 22 26 22H4.25C3.7693 22 3.30828 21.7893 2.96837 21.4142C2.62846 21.0391 2.4375 20.5304 2.4375 20V4C2.4375 3.46957 2.62846 2.96086 2.96837 2.58579C3.30828 2.21071 3.7693 2 4.25 2H26ZM4.25 0C3.28859 0 2.36656 0.421427 1.68674 1.17157C1.00692 1.92172 0.625 2.93913 0.625 4L0.625 20C0.625 21.0609 1.00692 22.0783 1.68674 22.8284C2.36656 23.5786 3.28859 24 4.25 24H26C26.9614 24 27.8834 23.5786 28.5633 22.8284C29.2431 22.0783 29.625 21.0609 29.625 20V4C29.625 2.93913 29.2431 1.92172 28.5633 1.17157C27.8834 0.421427 26.9614 0 26 0H4.25Z" fill="#F10250"/>
<path d="M4.25 7C4.25 6.73478 4.34548 6.48043 4.51543 6.29289C4.68539 6.10536 4.9159 6 5.15625 6H8.78125C9.0216 6 9.25211 6.10536 9.42207 6.29289C9.59202 6.48043 9.6875 6.73478 9.6875 7V9C9.6875 9.26522 9.59202 9.51957 9.42207 9.70711C9.25211 9.89464 9.0216 10 8.78125 10H5.15625C4.9159 10 4.68539 9.89464 4.51543 9.70711C4.34548 9.51957 4.25 9.26522 4.25 9V7ZM4.25 13C4.25 12.7348 4.34548 12.4804 4.51543 12.2929C4.68539 12.1054 4.9159 12 5.15625 12H14.2188C14.4591 12 14.6896 12.1054 14.8596 12.2929C15.0295 12.4804 15.125 12.7348 15.125 13C15.125 13.2652 15.0295 13.5196 14.8596 13.7071C14.6896 13.8946 14.4591 14 14.2188 14H5.15625C4.9159 14 4.68539 13.8946 4.51543 13.7071C4.34548 13.5196 4.25 13.2652 4.25 13ZM4.25 17C4.25 16.7348 4.34548 16.4804 4.51543 16.2929C4.68539 16.1054 4.9159 16 5.15625 16H6.96875C7.2091 16 7.43961 16.1054 7.60957 16.2929C7.77952 16.4804 7.875 16.7348 7.875 17C7.875 17.2652 7.77952 17.5196 7.60957 17.7071C7.43961 17.8946 7.2091 18 6.96875 18H5.15625C4.9159 18 4.68539 17.8946 4.51543 17.7071C4.34548 17.5196 4.25 17.2652 4.25 17ZM9.6875 17C9.6875 16.7348 9.78298 16.4804 9.95293 16.2929C10.1229 16.1054 10.3534 16 10.5938 16H12.4062C12.6466 16 12.8771 16.1054 13.0471 16.2929C13.217 16.4804 13.3125 16.7348 13.3125 17C13.3125 17.2652 13.217 17.5196 13.0471 17.7071C12.8771 17.8946 12.6466 18 12.4062 18H10.5938C10.3534 18 10.1229 17.8946 9.95293 17.7071C9.78298 17.5196 9.6875 17.2652 9.6875 17ZM15.125 17C15.125 16.7348 15.2205 16.4804 15.3904 16.2929C15.5604 16.1054 15.7909 16 16.0312 16H17.8438C18.0841 16 18.3146 16.1054 18.4846 16.2929C18.6545 16.4804 18.75 16.7348 18.75 17C18.75 17.2652 18.6545 17.5196 18.4846 17.7071C18.3146 17.8946 18.0841 18 17.8438 18H16.0312C15.7909 18 15.5604 17.8946 15.3904 17.7071C15.2205 17.5196 15.125 17.2652 15.125 17ZM20.5625 17C20.5625 16.7348 20.658 16.4804 20.8279 16.2929C20.9979 16.1054 21.2284 16 21.4688 16H23.2812C23.5216 16 23.7521 16.1054 23.9221 16.2929C24.092 16.4804 24.1875 16.7348 24.1875 17C24.1875 17.2652 24.092 17.5196 23.9221 17.7071C23.7521 17.8946 23.5216 18 23.2812 18H21.4688C21.2284 18 20.9979 17.8946 20.8279 17.7071C20.658 17.5196 20.5625 17.2652 20.5625 17Z" fill="#F10250"/>
</svg>
