<svg width="25" height="24" viewBox="0 0 25 24" fill="none" xmlns="http://www.w3.org/2000/svg">
<g clip-path="url(#clip0_212_1027)">
<path d="M16.875 1.5C17.2728 1.5 17.6544 1.65804 17.9357 1.93934C18.217 2.22064 18.375 2.60218 18.375 3V21C18.375 21.3978 18.217 21.7794 17.9357 22.0607C17.6544 22.342 17.2728 22.5 16.875 22.5H7.875C7.47718 22.5 7.09564 22.342 6.81434 22.0607C6.53304 21.7794 6.375 21.3978 6.375 21V3C6.375 2.60218 6.53304 2.22064 6.81434 1.93934C7.09564 1.65804 7.47718 1.5 7.875 1.5H16.875ZM7.875 0C7.07935 0 6.31629 0.316071 5.75368 0.87868C5.19107 1.44129 4.875 2.20435 4.875 3V21C4.875 21.7956 5.19107 22.5587 5.75368 23.1213C6.31629 23.6839 7.07935 24 7.875 24H16.875C17.6706 24 18.4337 23.6839 18.9963 23.1213C19.5589 22.5587 19.875 21.7956 19.875 21V3C19.875 2.20435 19.5589 1.44129 18.9963 0.87868C18.4337 0.316071 17.6706 0 16.875 0L7.875 0Z" fill="#F10250"/>
<path d="M12.375 21C12.7728 21 13.1544 20.842 13.4357 20.5607C13.717 20.2794 13.875 19.8978 13.875 19.5C13.875 19.1022 13.717 18.7206 13.4357 18.4393C13.1544 18.158 12.7728 18 12.375 18C11.9772 18 11.5956 18.158 11.3143 18.4393C11.033 18.7206 10.875 19.1022 10.875 19.5C10.875 19.8978 11.033 20.2794 11.3143 20.5607C11.5956 20.842 11.9772 21 12.375 21Z" fill="#F10250"/>
</g>
<defs>
<clipPath id="clip0_212_1027">
<rect width="24" height="24" fill="white" transform="translate(0.375)"/>
</clipPath>
</defs>
</svg>
