<svg width="26" height="25" viewBox="0 0 26 25" fill="none" xmlns="http://www.w3.org/2000/svg">
<path d="M17.9273 6.9186C17.9273 6.7907 17.8226 6.68605 17.6947 6.68605H16.1104C16.0232 6.68605 15.9418 6.73547 15.9041 6.81395L13.4419 11.7209H13.3459L10.8837 6.81395C10.8645 6.77569 10.835 6.7435 10.7986 6.72092C10.7621 6.69835 10.7202 6.68628 10.6773 6.68605H9.05816C9.02037 6.68605 8.98258 6.69477 8.9477 6.71512C8.83433 6.77616 8.79363 6.9186 8.85468 7.02907L11.875 12.5988H10.218C10.0901 12.5988 9.98548 12.7035 9.98548 12.8314V13.6192C9.98548 13.7471 10.0901 13.8517 10.218 13.8517H12.4273V14.9855H10.218C10.0901 14.9855 9.98548 15.0901 9.98548 15.218V16.0058C9.98548 16.1337 10.0901 16.2384 10.218 16.2384H12.4273V18.0814C12.4273 18.2093 12.532 18.314 12.6599 18.314H14.1105C14.2384 18.314 14.343 18.2093 14.343 18.0814V16.2355H16.561C16.6889 16.2355 16.7936 16.1308 16.7936 16.0029V15.2151C16.7936 15.0872 16.6889 14.9826 16.561 14.9826H14.343V13.8488H16.561C16.6889 13.8488 16.7936 13.7442 16.7936 13.6163V12.8285C16.7936 12.7006 16.6889 12.5959 16.561 12.5959H14.8866L17.9011 7.02616C17.9157 6.99419 17.9273 6.9564 17.9273 6.9186V6.9186ZM3.08146 12.2733C3.13606 9.62386 4.21433 7.09851 6.09016 5.22674C7.03492 4.28198 8.13375 3.53779 9.35758 3.02035C10.625 2.48547 11.9709 2.21221 13.3576 2.21221C14.7471 2.21221 16.093 2.48256 17.3575 3.02035C18.5814 3.53779 19.6802 4.28198 20.625 5.22674C20.9157 5.51744 21.186 5.82267 21.436 6.13954L19.9825 7.27616C19.9479 7.30295 19.9215 7.33896 19.9065 7.38006C19.8914 7.42117 19.8882 7.46569 19.8973 7.5085C19.9065 7.55132 19.9275 7.5907 19.958 7.62211C19.9885 7.65351 20.0272 7.67568 20.0697 7.68605L24.6278 8.79942C24.7732 8.8343 24.9156 8.72384 24.9156 8.57558L24.9389 3.88081C24.9389 3.68605 24.7151 3.57558 24.5639 3.69767L23.1744 4.78488C20.8953 1.86919 17.3459 0 13.3605 0C6.54364 0 1.00007 5.46802 0.875073 12.2616C0.874297 12.2927 0.879739 12.3235 0.891078 12.3524C0.902417 12.3813 0.919424 12.4076 0.941097 12.4298C0.962769 12.4521 0.988669 12.4697 1.01727 12.4818C1.04587 12.4938 1.07659 12.5 1.10763 12.5H2.85181C2.9768 12.5 3.07855 12.3983 3.08146 12.2733ZM25.6424 12.5H23.8982C23.7732 12.5 23.6685 12.6017 23.6656 12.7267C23.611 15.3761 22.5328 17.9015 20.6569 19.7733C19.7208 20.7133 18.6112 21.4626 17.3895 21.9797C16.1221 22.5145 14.7762 22.7878 13.3895 22.7878C12.0029 22.7878 10.6541 22.5174 9.38956 21.9797C8.16789 21.4626 7.05822 20.7133 6.12214 19.7733C5.83144 19.4826 5.56109 19.1773 5.31109 18.8605L6.76167 17.7238C6.79629 17.6971 6.82265 17.661 6.83772 17.6199C6.85279 17.5788 6.85595 17.5343 6.84684 17.4915C6.83773 17.4487 6.81672 17.4093 6.78622 17.3779C6.75573 17.3465 6.71699 17.3243 6.67446 17.314L2.11634 16.2006C1.971 16.1657 1.82856 16.2762 1.82856 16.4244L1.8053 21.125C1.8053 21.3198 2.02914 21.4302 2.1803 21.3081L3.56982 20.2209C5.85469 23.1308 9.40409 25 13.3895 25C20.2064 25 25.7499 19.532 25.8749 12.7384C25.8757 12.7073 25.8703 12.6765 25.8589 12.6476C25.8476 12.6187 25.8306 12.5924 25.8089 12.5702C25.7872 12.5479 25.7613 12.5303 25.7327 12.5182C25.7041 12.5062 25.6734 12.5 25.6424 12.5V12.5Z" fill="#F10250"/>
</svg>
