<svg width="25" height="24" viewBox="0 0 25 24" fill="none" xmlns="http://www.w3.org/2000/svg">
<path d="M12.4021 0.924671C12.5023 1.20639 12.6085 1.48085 12.7197 1.74871L12.7201 1.74954C13.9727 4.75167 15.916 6.91278 17.5964 8.78154L17.6051 8.79117C19.6062 11.0184 21.125 12.7451 21.125 15C21.125 17.2543 20.2295 19.4163 18.6354 21.0104C17.0413 22.6045 14.8793 23.5 12.625 23.5C10.3707 23.5 8.20865 22.6045 6.61459 21.0104C5.02053 19.4163 4.125 17.2543 4.125 15C4.125 12.655 5.39607 9.95319 7.03324 7.46651C8.65838 4.99812 10.5898 2.82186 11.8024 1.54447L12.4021 0.924671ZM12.4021 0.924671C12.2329 1.09632 12.0308 1.30423 11.8026 1.54425L12.4021 0.924671ZM11.9622 2.64155L11.6923 2.39216C10.7187 3.44568 9.79352 4.54288 8.91952 5.68036L8.91873 5.6814C7.81843 7.12118 6.73303 8.73645 5.92771 10.3686C5.116 12.0119 4.625 13.5989 4.625 15V15.2831L4.86775 15.4287L5.125 15C4.86775 15.4287 4.86792 15.4288 4.8681 15.429L4.86854 15.4292L4.86968 15.4299L4.87298 15.4319L4.88368 15.4381C4.89262 15.4434 4.90515 15.4506 4.92117 15.4597C4.95319 15.4779 4.99917 15.5035 5.05816 15.5349C5.17611 15.5978 5.3464 15.6845 5.56165 15.7829C5.99154 15.9794 6.60418 16.2244 7.33992 16.4206C8.80597 16.8116 10.8001 17.0185 12.8107 16.2142C14.6084 15.4952 16.4154 15.3125 17.7812 15.3125C18.4625 15.3125 19.0292 15.3579 19.4237 15.403C19.6208 15.4255 19.7745 15.4479 19.8775 15.4644C19.9291 15.4727 19.9679 15.4794 19.9931 15.484L20.0206 15.4891L20.0264 15.4902L20.0269 15.4903L20.0272 15.4903L20.0273 15.4904L20.0274 15.4904L20.625 15.6099V15C20.625 13.9756 20.2815 13.0739 19.6896 12.148C19.1057 11.2348 18.2593 10.2676 17.2256 9.11601L17.2257 9.11593L17.2183 9.10803L17.177 9.06403C15.6166 7.3249 13.7926 5.29157 12.5135 2.52046L11.9622 2.64155Z" fill="#F10250" stroke="#F10250"/>
<path d="M10.9653 8.04736C10.4054 8.70251 9.47975 9.95131 8.57678 11.6671L8.12969 11.443C9.06099 9.67131 10.0215 8.3759 10.6098 7.69181L10.9653 8.04736Z" fill="black" stroke="#F10250"/>
</svg>
