<svg width="25" height="24" viewBox="0 0 25 24" fill="none" xmlns="http://www.w3.org/2000/svg">
<path d="M21.8263 10.7795C22.5807 10.7795 22.8956 9.81027 22.2828 9.36349L12.9591 2.58127C12.8259 2.48371 12.6652 2.43112 12.5001 2.43112C12.335 2.43112 12.1743 2.48371 12.0411 2.58127L2.7174 9.36349C2.1046 9.80783 2.41954 10.7795 3.17638 10.7795H4.68761V19.9104H2.9298C2.82238 19.9104 2.73449 19.9983 2.73449 20.1057V21.3752C2.73449 21.4826 2.82238 21.5705 2.9298 21.5705H22.0704C22.1778 21.5705 22.2657 21.4826 22.2657 21.3752V20.1057C22.2657 19.9983 22.1778 19.9104 22.0704 19.9104H20.3126V10.7795H21.8263ZM12.5001 4.30246L19.1188 9.11691H5.88146L12.5001 4.30246ZM6.44542 10.7795H9.30187V19.9104H6.44542V10.7795ZM11.0597 10.7795H13.9161V19.9104H11.0597V10.7795ZM18.5548 19.9104H15.6739V10.7795H18.5548V19.9104Z" fill="black"/>
</svg>
