<?xml version="1.0" encoding="utf-8"?>
<!-- Generator: Adobe Illustrator 19.2.1, SVG Export Plug-In . SVG Version: 6.00 Build 0)  -->
<svg version="1.1" id="layer" xmlns="http://www.w3.org/2000/svg" xmlns:xlink="http://www.w3.org/1999/xlink" x="0px" y="0px"
	 viewBox="0 0 652 652" style="enable-background:new 0 0 652 652;" xml:space="preserve">
<style type="text/css">
	.st0{fill-rule:evenodd;clip-rule:evenodd;fill:#1A2474;}
</style>
<path class="st0" d="M171.5,121.5c-58,60-115.6,119.7-174.3,180.6c3.2,0.2,4.7,0.4,6.4,0.4c9.1,0,18.3-0.1,27.5,0
	c11.8,0.1,20,8.2,20.5,20.1c0.1,1.7,0.1,3.3,0.1,5v197.5c0,7.1,0,7.1,7,7.1h526.9c6.8,0,6.8,0,7-6.8c0-13.5-0.1-27,0-40.6
	c0-13.9,6.7-21.7,20.3-24.1c30.3-5.4,50.9-24.8,56.5-53.4c6.9-35.1-18.4-71.5-53.8-76.7c-5.1-0.7-6.8-2.3-6.8-7.7
	c0.1-18.7,0.1-37.6-6.3-55.5c-11.6-32.4-33.8-53.9-66.8-63.7c-4.8-1.4-6-3.5-6.1-8.2c-0.4-20.2-4.7-39.4-17.7-55.7
	c-24.2-30.5-68.5-37-100.2-14.4c-6.6,4.6-13.2,7.2-21,4c-7.3-2.9-11.7-8.3-12.8-16.1c-1-8,2.2-14.4,8.5-19.2
	c12.4-9.2,26.1-15.5,41-19.1c65-15.6,129.5,28.1,139.5,94.3c0.3,2,2.2,4.5,4.1,5.5c43,22.8,68.1,58.2,75.7,106.2
	c0.6,3.5,1.3,7.1,0.9,10.5c-0.9,6.5,2.6,9.1,7.6,12.1c36.4,21.3,55.5,53.3,54,95.5c-1.5,44.3-24.4,75.5-64.6,93.9
	c-0.7,0.4-1.6,0.7-2.3,1c-10.1,4.2-10.1,4.2-10.1,15.4c0,13.7,0,27.4,0,41.1c-0.1,13.1-8.7,21.6-21.7,21.6
	c-191.8,0-383.7,0.1-575.6-0.1c-4.4,0-9.2-1.3-13.3-3.4c-6.1-3.2-9.2-8.9-9.5-15.9c-0.1-4,0-8,0-12.1v-192c0-6.6,0-6.7-6.7-6.7
	c-17.5,0-35-0.1-52.7,0.1c-9.4,0.1-16-4-20-12.3c-3.5-7.5-1.5-16.1,5-23c72.5-75.1,145-150.3,217.5-225.5
	c10.6-11.1,21.4-11.2,32.5-0.4c21.4,20.7,42.7,41.5,64,62.3c8.8,8.5,9.4,20.9,1.4,29.1c-7.7,8-20.6,7.9-29.2-0.4
	c-16.4-15.7-32.7-31.5-49.2-47.3C174,123.5,173.1,122.8,171.5,121.5"/>
<path class="st0" d="M216.7,293.1c-7.3,8.8-14.5,17.4-22.1,26.4c-8.2-9-15.8-17.5-24.3-26.9c-0.2,2.6-0.5,4-0.5,5.4
	c-0.1,9.5-0.2,19-0.3,28.5c-0.3,15-10.5,25.4-24.7,25.3c-14-0.1-24-10.8-24-25.8c-0.1-30.1-0.1-60.1,0-90.2c0-11.4,6-20.8,15.8-24.5
	c10.6-4.1,21-1.4,28.9,7.5c9.4,10.4,18.7,20.8,29.9,33c1.2-2.2,1.9-4.2,3.2-5.7c7.7-9,15.6-17.9,23.4-26.7c7.8-9,18.6-12.1,28.9-8.3
	c10.3,3.8,16.3,13,16.3,25v90.7c-0.1,14.3-10.1,24.9-23.7,25c-14.2,0.1-24.2-9.9-24.6-24.6c-0.3-11-0.6-22-1-33
	C217.8,294,217.5,294,216.7,293.1"/>
<path class="st0" d="M365.1,363.6c40.6,0.1,73.2,33.6,72.9,74.8c-0.3,41.3-33.3,74-74.5,73.8c-40-0.3-72.6-33.8-72.4-74.8
	C291.3,396.3,324.2,363.5,365.1,363.6 M393.6,438c0-16.4-12.8-29.2-29.2-29.2c-15.8,0-29,13.1-29.1,28.9
	c-0.2,15.8,13.5,29.4,29.4,29.3C380.6,466.9,393.5,454,393.6,438"/>
<path class="st0" d="M399,309.5c0,6.1,0.2,12.2,0,18.3c-0.5,11.9-8,21-19,23.5c-10.3,2.3-21.6-2.3-26.4-11.9
	c-1.9-3.7-3.1-8.2-3.2-12.4c-0.2-30.5-0.2-61.1-0.2-91.7c0.1-11.8,6.7-21,17.3-24.3c10.6-3.2,20.9,0.7,27.8,10.6
	c6.9,10,13.9,20,21.7,31.2c0.3-2.6,0.5-3.9,0.5-5.2c0.3-5.8-0.1-11.8,0.8-17.5c1.8-12.8,13.1-21.6,25.3-20.6
	c13,1.2,22.6,11.1,22.7,24.3c0.2,29.1,0,58.2,0,87.2c0,3.5,0.3,7.1-0.4,10.5c-2.1,10.5-8.5,17.2-19.1,19.3
	c-10.4,2.1-18.8-1.7-24.8-10.1c-6.5-9.1-12.6-18.5-18.9-27.7c-0.9-1.3-1.9-2.5-2.8-3.8C399.8,309.3,399.4,309.4,399,309.5"/>
<path class="st0" d="M448.8,433.1c0-16.5,0-33,0-49.6c0-11,5.7-16.5,16.7-16.5c15.4,0,30.7-0.1,46.1,0c22.8,0.2,42.1,15.2,47.2,36.1
	c7,29.3-13.4,55.4-44.5,56.8c-4.3,0.2-8.7,0.2-13,0.1c-2.9-0.2-3.8,0.9-3.8,3.8c0.1,6.6,0.1,13.3,0,20c0,14.5-10.1,25.3-23.8,25.5
	c-14.2,0.2-24.7-10.2-24.9-25C448.7,467.2,448.8,450.1,448.8,433.1z M497.7,424.5c1.2,0.3,1.8,0.5,2.3,0.5c4,0.1,8.1,0.3,12,0
	c6-0.3,10.6-5.4,10.5-11.2c0-5.6-4.5-10.5-10.3-10.9c-3.8-0.3-7.7-0.3-11.5,0c-1,0.1-2.8,1.4-2.9,2.2
	C497.6,411.6,497.7,418,497.7,424.5"/>
<path class="st0" d="M149.8,512.7c-18.2-0.2-32.2-5.8-43.7-17.4c-7.4-7.6-8.7-17.8-3.4-26.1c5.3-8.2,14.8-11.5,24.5-7.9
	c4.3,1.6,8.1,4.1,12.1,6c3,1.5,6.4,3.8,8.7-0.5c2.1-4.1-1.7-6-4.4-7.6c-5.1-3.2-10.6-5.7-15.5-9.1c-15.4-10.2-25.3-23.5-24.5-43
	c0.8-22.3,15.4-39.4,37.5-42.9c18.6-2.9,34.6,2.3,47.7,16c6.2,6.3,7.3,15.1,3.1,22.1c-4.7,7.6-12.9,10.7-21.7,7.6
	c-4.3-1.5-8.2-3.8-12.2-5.9c-2.8-1.4-5.9-2.7-7.8,0.7c-2.1,3.2,0.1,5.8,2.9,7.4c4.5,2.7,9.3,5.2,14,7.8
	c13.3,7.5,23.6,17.5,27.6,32.7C202.6,483.1,179.7,512.6,149.8,512.7"/>
<path class="st0" d="M227.4,450.6c0-12.2-0.2-24.4,0-36.6c0.1-4.1-1.4-5.4-5.2-5c-8.2,0.7-15.2-1.9-20.1-8.8
	c-4.7-6.7-5.3-14-1.8-21.3c3.6-7.4,9.8-11.7,17.9-11.8c20.6-0.3,41-0.3,61.7,0c11.6,0.2,20.3,9.8,20.1,21.3
	c-0.1,11.3-8.7,20.4-20.3,20.5c-4.7,0-5.9,1.6-5.8,6c0.2,23.8,0.1,47.4,0,71.2c0,11.3-8,21-18.6,22.9c-11.8,2.1-22.8-4.2-26.5-15.4
	c-1-3-1.1-6.2-1.2-9.4c-0.2-11.2-0.1-22.4-0.1-33.6H227.4z"/>
<path class="st0" d="M533.5,280.8c0,15.6,0.2,31.1-0.1,46.6c-0.2,11.7-8.3,21.6-19.1,24.1c-11.3,2.6-23.3-2.5-28.2-12.9
	c-1.9-3.9-3-8.6-3-13c-0.3-29.9-0.2-59.7-0.2-89.6c0.1-15.3,11.1-26.6,25.5-26.5c14.3,0.1,25,11.5,25.1,26.8v22.5V280.8z"/>
<path class="st0" d="M334,280.9c0,15.3,0.2,30.7,0,46c-0.1,11.6-7.3,20.8-18.3,24.2c-10.4,3.1-22-0.8-27.8-10.5
	c-2.5-4.1-4.1-9.4-4.2-14.1c-0.3-30.2-0.3-60.4-0.1-90.6c0.1-15.3,11.1-26.6,25.5-26.4c14.4,0.1,25,11.5,25.1,26.9v22.5V280.9z"/>
</svg>
