<svg width="24" height="24" viewBox="0 0 24 24" fill="none" xmlns="http://www.w3.org/2000/svg">
<path d="M1.93967 1.93956C2.22096 1.65835 2.60242 1.50038 3.00017 1.50038C3.39791 1.50038 3.77938 1.65835 4.06067 1.93956L12.0002 9.87906L19.9397 1.93956C20.078 1.7963 20.2436 1.68202 20.4266 1.60341C20.6096 1.5248 20.8064 1.48342 21.0056 1.48169C21.2047 1.47995 21.4023 1.51791 21.5866 1.59333C21.7709 1.66875 21.9384 1.78013 22.0793 1.92097C22.2201 2.06181 22.3315 2.22929 22.4069 2.41363C22.4823 2.59797 22.5203 2.79549 22.5185 2.99466C22.5168 3.19383 22.4754 3.39066 22.3968 3.57367C22.3182 3.75667 22.2039 3.92219 22.0607 4.06056L14.1212 12.0001L22.0607 19.9396C22.3339 20.2225 22.4851 20.6014 22.4817 20.9947C22.4783 21.388 22.3205 21.7642 22.0424 22.0423C21.7643 22.3204 21.3881 22.4782 20.9948 22.4816C20.6015 22.485 20.2226 22.3338 19.9397 22.0606L12.0002 14.1211L4.06067 22.0606C3.77776 22.3338 3.39886 22.485 3.00557 22.4816C2.61227 22.4782 2.23605 22.3204 1.95794 22.0423C1.67983 21.7642 1.52207 21.388 1.51866 20.9947C1.51524 20.6014 1.66643 20.2225 1.93967 19.9396L9.87917 12.0001L1.93967 4.06056C1.65846 3.77927 1.50049 3.39781 1.50049 3.00006C1.50049 2.60231 1.65846 2.22085 1.93967 1.93956Z" fill="black"/>
</svg>
