<svg width="157" height="42" viewBox="0 0 157 42" fill="none" xmlns="http://www.w3.org/2000/svg">
<g clip-path="url(#clip0_286_2393)">
<path d="M12.2779 37.3332L17.3609 11.9932H7.33472L8.82699 4.6665H38.0663L36.574 11.9932H26.5944L21.5113 37.3332H12.2779Z" fill="#FF165D"/>
<path d="M6.06006 32.6667L11.1431 7.32667H1.11688L2.60917 0H31.8484L30.3562 7.32667H20.3766L15.2935 32.6667H6.06006Z" fill="#00F2EA"/>
<path d="M83.1783 34.5023C81.3958 34.5023 79.8414 34.1808 78.5149 33.5379C77.1885 32.8949 76.1626 32.003 75.4371 30.8623C74.7116 29.7008 74.349 28.3527 74.349 26.8179C74.349 24.9512 74.7947 23.2919 75.6858 21.8401C76.577 20.3674 77.7999 19.2061 79.3543 18.3556C80.9088 17.5052 82.6913 17.0801 84.7017 17.0801C86.5048 17.0801 88.0593 17.4016 89.365 18.0445C90.6915 18.6667 91.7174 19.5483 92.4429 20.689C93.1683 21.8297 93.531 23.1779 93.531 24.7334C93.531 26.6001 93.0853 28.2697 92.1941 29.7423C91.303 31.2149 90.0801 32.3763 88.5256 33.2267C86.9712 34.0772 85.1887 34.5023 83.1783 34.5023ZM83.5203 29.8045C84.3079 29.8045 85.0021 29.6074 85.6033 29.2134C86.2044 28.7985 86.6707 28.2385 87.0023 27.5334C87.3547 26.8283 87.5308 25.9985 87.5308 25.0445C87.5308 24.1112 87.251 23.3334 86.6914 22.7112C86.1524 22.089 85.3752 21.7779 84.3597 21.7779C83.572 21.7779 82.8778 21.9749 82.2767 22.369C81.6756 22.763 81.199 23.323 80.8466 24.049C80.5151 24.7541 80.3492 25.5838 80.3492 26.5379C80.3492 27.5334 80.629 28.3319 81.1886 28.9334C81.7482 29.5141 82.5254 29.8045 83.5203 29.8045Z" fill="#FF165D"/>
<path d="M80.0694 34.5023C78.2869 34.5023 76.7324 34.1808 75.406 33.5379C74.0796 32.8949 73.0536 32.003 72.3282 30.8623C71.6027 29.7008 71.2401 28.3527 71.2401 26.8179C71.2401 24.9512 71.6857 23.2919 72.5769 21.8401C73.4681 20.3674 74.6909 19.2061 76.2454 18.3556C77.7998 17.5052 79.5823 17.0801 81.5927 17.0801C83.3959 17.0801 84.9503 17.4016 86.2561 18.0445C87.5825 18.6667 88.6084 19.5483 89.3339 20.689C90.0594 21.8297 90.422 23.1779 90.422 24.7334C90.422 26.6001 89.9764 28.2697 89.0852 29.7423C88.194 31.2149 86.9711 32.3763 85.4167 33.2267C83.8622 34.0772 82.0797 34.5023 80.0694 34.5023ZM80.4113 29.8045C81.199 29.8045 81.8932 29.6074 82.4943 29.2134C83.0954 28.7985 83.5618 28.2385 83.8933 27.5334C84.2457 26.8283 84.4218 25.9985 84.4218 25.0445C84.4218 24.1112 84.142 23.3334 83.5824 22.7112C83.0435 22.089 82.2663 21.7779 81.2507 21.7779C80.4631 21.7779 79.7689 21.9749 79.1678 22.369C78.5667 22.763 78.0901 23.323 77.7377 24.049C77.4061 24.7541 77.2403 25.5838 77.2403 26.5379C77.2403 27.5334 77.52 28.3319 78.0797 28.9334C78.6393 29.5141 79.4165 29.8045 80.4113 29.8045Z" fill="#00F2EA"/>
<path d="M9.46197 34.2223L14.545 8.88233H4.5188L6.01108 1.55566H35.2504L33.7581 8.88233H23.7785L18.6954 34.2223H9.46197ZM43.2223 34.2223L47.5747 12.4446H52.5801L58.5803 27.2846H55.9377L67.565 12.4446H72.8191L68.5288 34.2223H62.8395L65.4199 21.0312L66.4458 21.0001L57.8341 32.0757H55.1294L50.4349 20.969L51.5231 21.0623L48.8805 34.2223H43.2223ZM81.9624 34.5023C80.1799 34.5023 78.6255 34.1808 77.299 33.5379C75.9725 32.895 74.9465 32.003 74.2212 30.8623C73.4958 29.7008 73.1331 28.3528 73.1331 26.8179C73.1331 24.9512 73.5786 23.2919 74.4699 21.8401C75.3611 20.3675 76.584 19.2061 78.1385 18.3557C79.6929 17.5052 81.4752 17.0801 83.4858 17.0801C85.2889 17.0801 86.8434 17.4016 88.1491 18.0446C89.4756 18.6668 90.5015 19.5483 91.227 20.689C91.9523 21.8297 92.3151 23.1779 92.3151 24.7334C92.3151 26.6001 91.8694 28.2697 90.9783 29.7423C90.0869 31.215 88.8642 32.3764 87.3097 33.2268C85.7553 34.0772 83.9728 34.5023 81.9624 34.5023ZM82.3044 29.8046C83.0919 29.8046 83.7863 29.6075 84.3874 29.2134C84.9883 28.7986 85.4547 28.2386 85.7864 27.5334C86.1386 26.8283 86.3149 25.9986 86.3149 25.0446C86.3149 24.1112 86.0351 23.3334 85.4755 22.7112C84.9365 22.089 84.1593 21.7779 83.1438 21.7779C82.3562 21.7779 81.6618 21.975 81.0608 22.369C80.4597 22.763 79.983 23.323 79.6307 24.049C79.299 24.7541 79.1333 25.5839 79.1333 26.5379C79.1333 27.5334 79.4131 28.3319 79.9727 28.9334C80.5323 29.5141 81.3095 29.8046 82.3044 29.8046ZM107.177 17.0801C108.607 17.0801 109.819 17.3808 110.814 17.9823C111.809 18.563 112.514 19.4341 112.928 20.5957C113.364 21.7364 113.405 23.1675 113.053 24.889L111.187 34.2223H105.28L107.021 25.449C107.249 24.3705 107.177 23.5408 106.804 22.9601C106.451 22.3794 105.788 22.089 104.814 22.089C103.819 22.089 102.98 22.4001 102.296 23.0223C101.612 23.6446 101.135 24.5986 100.866 25.8846L99.187 34.2223H93.2801L96.6377 17.3601H102.234L101.27 22.089L100.524 20.7201C101.332 19.455 102.327 18.5319 103.508 17.9512C104.71 17.3705 105.933 17.0801 107.177 17.0801ZM124.562 34.5023C122.759 34.5023 121.183 34.1912 119.836 33.569C118.51 32.9261 117.473 32.0341 116.727 30.8934C115.981 29.7319 115.608 28.3734 115.608 26.8179C115.608 24.9512 116.033 23.2919 116.883 21.8401C117.732 20.3675 118.924 19.2061 120.458 18.3557C121.992 17.5052 123.774 17.0801 125.805 17.0801C127.526 17.0801 128.997 17.3912 130.22 18.0134C131.464 18.6357 132.417 19.5068 133.08 20.6268C133.764 21.7261 134.106 23.0119 134.106 24.4846C134.106 24.9823 134.075 25.4594 134.013 25.9157C133.951 26.3719 133.868 26.8179 133.764 27.2534H120.24L120.8 24.1423H131.028L128.572 25.0446C128.738 24.2357 128.707 23.5616 128.479 23.0223C128.272 22.4623 127.909 22.0372 127.391 21.7468C126.893 21.4357 126.272 21.2801 125.526 21.2801C124.572 21.2801 123.785 21.5186 123.163 21.9957C122.562 22.4728 122.106 23.1261 121.795 23.9557C121.505 24.7646 121.36 25.6461 121.36 26.6001C121.36 27.7616 121.681 28.6223 122.323 29.1823C122.966 29.7216 123.93 29.9912 125.215 29.9912C125.961 29.9912 126.686 29.8772 127.391 29.649C128.116 29.4001 128.748 29.0579 129.287 28.6223L131.743 32.3246C130.686 33.1128 129.536 33.6728 128.292 34.0046C127.07 34.3364 125.826 34.5023 124.562 34.5023ZM136.529 40.5379C135.638 40.5379 134.757 40.403 133.886 40.1334C132.995 39.8639 132.29 39.5112 131.772 39.0757L134.415 34.9068C134.767 35.1972 135.161 35.4252 135.596 35.5912C136.031 35.7779 136.508 35.8712 137.026 35.8712C137.607 35.8712 138.104 35.7261 138.519 35.4357C138.933 35.1452 139.327 34.689 139.7 34.0668L140.912 32.1068L141.41 31.5157L149.897 17.3601H155.68L144.892 34.969C144.021 36.4001 143.172 37.5201 142.343 38.329C141.513 39.1379 140.633 39.7083 139.7 40.0401C138.767 40.3719 137.71 40.5379 136.529 40.5379ZM139.638 34.9379L135.69 17.3601H141.565L144.363 30.9868L139.638 34.9379Z" fill="black"/>
</g>
<defs>
<clipPath id="clip0_286_2393">
<rect width="157" height="42" fill="white"/>
</clipPath>
</defs>
</svg>
