<svg width="601" height="275" viewBox="0 0 601 275" fill="none" xmlns="http://www.w3.org/2000/svg">
<g filter="url(#filter0_d_509_425)">
<rect x="4.5" width="592.5" height="267" rx="10" fill="white"/>
<path d="M218.493 32.8C220.599 32.8 222.237 33.216 223.407 34.048C224.551 34.88 225.149 36.076 225.149 37.584C225.149 38.728 224.837 39.638 224.213 40.314C223.589 41.016 222.705 41.458 221.561 41.666C222.913 41.848 223.953 42.29 224.681 42.966C225.409 43.668 225.799 44.63 225.799 45.878C225.799 47.49 225.175 48.738 223.979 49.648C222.757 50.558 221.041 51 218.831 51H211.577V32.8H218.493ZM215.477 40.288H218.597C219.429 40.288 220.079 40.106 220.547 39.69C221.015 39.3 221.249 38.754 221.249 38.078C221.249 37.402 221.015 36.882 220.547 36.466C220.079 36.076 219.429 35.868 218.597 35.868H215.477V40.288ZM215.477 47.906H218.857C219.793 47.906 220.495 47.724 221.015 47.308C221.535 46.918 221.795 46.372 221.795 45.644C221.795 44.916 221.535 44.344 221.015 43.928C220.495 43.512 219.767 43.304 218.857 43.304H215.477V47.906ZM240.683 37.636V51H237.433L237.095 49.388C236.627 49.96 236.081 50.376 235.457 50.688C234.833 51 234.053 51.156 233.169 51.156C231.609 51.156 230.335 50.688 229.347 49.726C228.359 48.764 227.865 47.152 227.865 44.89V37.636H231.531V44.448C231.531 45.67 231.739 46.58 232.155 47.204C232.571 47.828 233.247 48.114 234.131 48.114C235.041 48.114 235.743 47.776 236.263 47.1C236.757 46.424 237.017 45.462 237.017 44.214V37.636H240.683ZM246.222 46.554C246.274 47.152 246.56 47.62 247.08 47.984C247.6 48.348 248.25 48.53 249.082 48.53C249.862 48.53 250.46 48.426 250.928 48.166C251.37 47.906 251.604 47.542 251.604 47.074C251.604 46.736 251.5 46.476 251.292 46.294C251.084 46.138 250.772 46.008 250.408 45.93C250.018 45.852 249.394 45.748 248.536 45.644C247.34 45.488 246.378 45.306 245.598 45.046C244.818 44.812 244.194 44.422 243.726 43.902C243.258 43.382 243.024 42.706 243.024 41.822C243.024 40.964 243.258 40.21 243.726 39.534C244.194 38.858 244.87 38.338 245.754 37.974C246.612 37.61 247.6 37.428 248.744 37.428C250.564 37.454 252.02 37.844 253.138 38.598C254.256 39.378 254.854 40.418 254.958 41.77H251.474C251.422 41.276 251.136 40.86 250.668 40.548C250.2 40.236 249.576 40.054 248.848 40.054C248.146 40.054 247.574 40.184 247.158 40.444C246.742 40.704 246.534 41.068 246.534 41.484C246.534 41.796 246.638 42.03 246.872 42.186C247.08 42.342 247.392 42.472 247.756 42.524C248.12 42.602 248.718 42.68 249.576 42.758C251.37 42.966 252.748 43.356 253.71 43.928C254.672 44.5 255.166 45.462 255.166 46.814C255.166 47.698 254.906 48.452 254.386 49.102C253.866 49.778 253.164 50.272 252.254 50.636C251.344 51 250.304 51.156 249.108 51.156C247.236 51.156 245.728 50.766 244.584 49.934C243.414 49.102 242.79 47.984 242.738 46.554H246.222ZM260.627 32.67C261.017 33.06 261.225 33.554 261.225 34.126C261.225 34.724 261.017 35.218 260.627 35.608C260.211 36.024 259.717 36.206 259.119 36.206C258.495 36.206 258.001 36.024 257.585 35.608C257.169 35.218 256.987 34.724 256.987 34.126C256.987 33.554 257.169 33.06 257.585 32.67C258.001 32.28 258.495 32.072 259.119 32.072C259.717 32.072 260.211 32.28 260.627 32.67ZM257.273 37.636H260.939V51H257.273V37.636ZM275.012 38.936C276 39.924 276.52 41.51 276.52 43.746V51H272.854V43.954C272.854 41.666 271.944 40.496 270.15 40.496C269.188 40.496 268.46 40.834 267.94 41.458C267.42 42.108 267.16 43.018 267.16 44.162V51H263.494V37.636H266.692L267.03 39.3C267.498 38.728 268.044 38.286 268.72 37.974C269.37 37.662 270.176 37.48 271.164 37.48C272.724 37.48 273.998 37.974 275.012 38.936ZM279.142 40.73C279.714 39.69 280.494 38.91 281.508 38.338C282.522 37.766 283.692 37.48 285.044 37.48C286.396 37.48 287.566 37.766 288.606 38.286C289.646 38.806 290.452 39.56 291.024 40.522C291.596 41.484 291.908 42.602 291.934 43.902C291.934 44.37 291.882 44.786 291.83 45.15H282.132V45.254C282.21 46.242 282.522 46.996 283.068 47.542C283.588 48.114 284.342 48.374 285.278 48.374C286.006 48.374 286.63 48.218 287.124 47.906C287.618 47.594 287.956 47.1 288.112 46.476H291.726C291.57 47.36 291.232 48.166 290.712 48.868C290.166 49.596 289.464 50.142 288.58 50.558C287.696 50.974 286.682 51.156 285.538 51.156C284.03 51.156 282.756 50.896 281.664 50.324C280.572 49.778 279.74 48.998 279.168 47.958C278.596 46.918 278.31 45.722 278.31 44.344C278.31 42.966 278.57 41.77 279.142 40.73ZM288.268 42.758C288.138 41.952 287.8 41.328 287.254 40.886C286.708 40.444 286.032 40.21 285.2 40.21C284.394 40.21 283.718 40.444 283.172 40.912C282.626 41.38 282.314 41.978 282.21 42.758H288.268ZM296.826 46.554C296.878 47.152 297.164 47.62 297.684 47.984C298.204 48.348 298.854 48.53 299.686 48.53C300.466 48.53 301.064 48.426 301.532 48.166C301.974 47.906 302.208 47.542 302.208 47.074C302.208 46.736 302.104 46.476 301.896 46.294C301.688 46.138 301.376 46.008 301.012 45.93C300.622 45.852 299.998 45.748 299.14 45.644C297.944 45.488 296.982 45.306 296.202 45.046C295.422 44.812 294.798 44.422 294.33 43.902C293.862 43.382 293.628 42.706 293.628 41.822C293.628 40.964 293.862 40.21 294.33 39.534C294.798 38.858 295.474 38.338 296.358 37.974C297.216 37.61 298.204 37.428 299.348 37.428C301.168 37.454 302.624 37.844 303.742 38.598C304.86 39.378 305.458 40.418 305.562 41.77H302.078C302.026 41.276 301.74 40.86 301.272 40.548C300.804 40.236 300.18 40.054 299.452 40.054C298.75 40.054 298.178 40.184 297.762 40.444C297.346 40.704 297.138 41.068 297.138 41.484C297.138 41.796 297.242 42.03 297.476 42.186C297.684 42.342 297.996 42.472 298.36 42.524C298.724 42.602 299.322 42.68 300.18 42.758C301.974 42.966 303.352 43.356 304.314 43.928C305.276 44.5 305.77 45.462 305.77 46.814C305.77 47.698 305.51 48.452 304.99 49.102C304.47 49.778 303.768 50.272 302.858 50.636C301.948 51 300.908 51.156 299.712 51.156C297.84 51.156 296.332 50.766 295.188 49.934C294.018 49.102 293.394 47.984 293.342 46.554H296.826ZM310.613 46.554C310.665 47.152 310.951 47.62 311.471 47.984C311.991 48.348 312.641 48.53 313.473 48.53C314.253 48.53 314.851 48.426 315.319 48.166C315.761 47.906 315.995 47.542 315.995 47.074C315.995 46.736 315.891 46.476 315.683 46.294C315.475 46.138 315.163 46.008 314.799 45.93C314.409 45.852 313.785 45.748 312.927 45.644C311.731 45.488 310.769 45.306 309.989 45.046C309.209 44.812 308.585 44.422 308.117 43.902C307.649 43.382 307.415 42.706 307.415 41.822C307.415 40.964 307.649 40.21 308.117 39.534C308.585 38.858 309.261 38.338 310.145 37.974C311.003 37.61 311.991 37.428 313.135 37.428C314.955 37.454 316.411 37.844 317.529 38.598C318.647 39.378 319.245 40.418 319.349 41.77H315.865C315.813 41.276 315.527 40.86 315.059 40.548C314.591 40.236 313.967 40.054 313.239 40.054C312.537 40.054 311.965 40.184 311.549 40.444C311.133 40.704 310.925 41.068 310.925 41.484C310.925 41.796 311.029 42.03 311.263 42.186C311.471 42.342 311.783 42.472 312.147 42.524C312.511 42.602 313.109 42.68 313.967 42.758C315.761 42.966 317.139 43.356 318.101 43.928C319.063 44.5 319.557 45.462 319.557 46.814C319.557 47.698 319.297 48.452 318.777 49.102C318.257 49.778 317.555 50.272 316.645 50.636C315.735 51 314.695 51.156 313.499 51.156C311.627 51.156 310.119 50.766 308.975 49.934C307.805 49.102 307.181 47.984 307.129 46.554H310.613ZM327.411 32.8H341.815V36.154H336.563V51H332.663V36.154H327.411V32.8ZM344.124 50.324C343.058 49.752 342.226 48.946 341.654 47.906C341.082 46.866 340.796 45.67 340.796 44.318C340.796 42.966 341.082 41.77 341.654 40.73C342.226 39.69 343.058 38.91 344.124 38.338C345.19 37.766 346.438 37.48 347.842 37.48C349.246 37.48 350.468 37.766 351.534 38.338C352.6 38.91 353.432 39.69 354.004 40.73C354.576 41.77 354.888 42.966 354.888 44.318C354.888 45.696 354.576 46.892 354.004 47.932C353.432 48.972 352.6 49.752 351.534 50.324C350.468 50.896 349.246 51.156 347.842 51.156C346.438 51.156 345.19 50.896 344.124 50.324ZM350.26 47.1C350.858 46.398 351.17 45.462 351.17 44.318C351.17 43.174 350.858 42.264 350.26 41.536C349.662 40.834 348.856 40.47 347.842 40.47C346.828 40.47 346.022 40.834 345.424 41.536C344.826 42.264 344.54 43.174 344.54 44.318C344.54 45.462 344.826 46.398 345.424 47.1C346.022 47.828 346.828 48.166 347.842 48.166C348.856 48.166 349.662 47.828 350.26 47.1ZM359.714 50.324C358.648 49.752 357.816 48.946 357.244 47.906C356.672 46.866 356.386 45.67 356.386 44.318C356.386 42.966 356.672 41.77 357.244 40.73C357.816 39.69 358.648 38.91 359.714 38.338C360.78 37.766 362.028 37.48 363.432 37.48C364.836 37.48 366.058 37.766 367.124 38.338C368.19 38.91 369.022 39.69 369.594 40.73C370.166 41.77 370.478 42.966 370.478 44.318C370.478 45.696 370.166 46.892 369.594 47.932C369.022 48.972 368.19 49.752 367.124 50.324C366.058 50.896 364.836 51.156 363.432 51.156C362.028 51.156 360.78 50.896 359.714 50.324ZM365.85 47.1C366.448 46.398 366.76 45.462 366.76 44.318C366.76 43.174 366.448 42.264 365.85 41.536C365.252 40.834 364.446 40.47 363.432 40.47C362.418 40.47 361.612 40.834 361.014 41.536C360.416 42.264 360.13 43.174 360.13 44.318C360.13 45.462 360.416 46.398 361.014 47.1C361.612 47.828 362.418 48.166 363.432 48.166C364.446 48.166 365.252 47.828 365.85 47.1ZM372.496 32.8H376.162V51H372.496V32.8ZM381.706 46.554C381.758 47.152 382.044 47.62 382.564 47.984C383.084 48.348 383.734 48.53 384.566 48.53C385.346 48.53 385.944 48.426 386.412 48.166C386.854 47.906 387.088 47.542 387.088 47.074C387.088 46.736 386.984 46.476 386.776 46.294C386.568 46.138 386.256 46.008 385.892 45.93C385.502 45.852 384.878 45.748 384.02 45.644C382.824 45.488 381.862 45.306 381.082 45.046C380.302 44.812 379.678 44.422 379.21 43.902C378.742 43.382 378.508 42.706 378.508 41.822C378.508 40.964 378.742 40.21 379.21 39.534C379.678 38.858 380.354 38.338 381.238 37.974C382.096 37.61 383.084 37.428 384.228 37.428C386.048 37.454 387.504 37.844 388.622 38.598C389.74 39.378 390.338 40.418 390.442 41.77H386.958C386.906 41.276 386.62 40.86 386.152 40.548C385.684 40.236 385.06 40.054 384.332 40.054C383.63 40.054 383.058 40.184 382.642 40.444C382.226 40.704 382.018 41.068 382.018 41.484C382.018 41.796 382.122 42.03 382.356 42.186C382.564 42.342 382.876 42.472 383.24 42.524C383.604 42.602 384.202 42.68 385.06 42.758C386.854 42.966 388.232 43.356 389.194 43.928C390.156 44.5 390.65 45.462 390.65 46.814C390.65 47.698 390.39 48.452 389.87 49.102C389.35 49.778 388.648 50.272 387.738 50.636C386.828 51 385.788 51.156 384.592 51.156C382.72 51.156 381.212 50.766 380.068 49.934C378.898 49.102 378.274 47.984 378.222 46.554H381.706Z" fill="#252B42"/>
<line x1="209.75" y1="62" x2="391.75" y2="62" stroke="#F10250" stroke-width="2"/>
<rect x="121.75" y="83" width="83" height="85" rx="20" fill="white"/>
<g clip-path="url(#clip0_509_425)">
<path d="M172.5 117.208H154V114.125H172.5V117.208ZM172.5 111.042H154V107.958H172.5V111.042ZM172.5 104.875H154V101.792H172.5V104.875ZM149.375 124.917L151.688 122.604L154 124.917L156.312 122.604L158.625 124.917L160.938 122.604L163.25 124.917L165.562 122.604L167.875 124.917L170.188 122.604L172.5 124.917L174.812 122.604L177.125 124.917V94.0833L174.812 96.3958L172.5 94.0833L170.188 96.3958L167.875 94.0833L165.562 96.3958L163.25 94.0833L160.938 96.3958L158.625 94.0833L156.312 96.3958L154 94.0833L151.688 96.3958L149.375 94.0833V124.917Z" fill="#F10250"/>
</g>
<path d="M127.963 141.4H130.033V154H127.963V141.4ZM139.666 145.684C140.35 146.368 140.71 147.448 140.71 148.924V154H138.748V149.032C138.748 148.168 138.55 147.502 138.19 147.034C137.812 146.584 137.272 146.35 136.552 146.35C135.778 146.35 135.166 146.62 134.734 147.16C134.302 147.7 134.086 148.42 134.086 149.356V154H132.142V144.784H133.833L134.05 145.99C134.734 145.126 135.724 144.676 137.002 144.676C138.082 144.676 138.982 145.018 139.666 145.684ZM141.278 144.784H143.366L145.904 151.912L148.406 144.784H150.458L147.056 154H144.68L141.278 144.784ZM152.981 153.532C152.261 153.136 151.721 152.596 151.325 151.876C150.929 151.156 150.749 150.328 150.749 149.392C150.749 148.474 150.929 147.664 151.325 146.944C151.721 146.224 152.261 145.666 152.981 145.27C153.701 144.874 154.511 144.676 155.447 144.676C156.365 144.676 157.175 144.874 157.895 145.27C158.615 145.666 159.155 146.224 159.551 146.944C159.947 147.664 160.145 148.474 160.145 149.392C160.145 150.328 159.947 151.156 159.551 151.876C159.155 152.596 158.615 153.136 157.895 153.532C157.175 153.928 156.365 154.108 155.447 154.108C154.511 154.108 153.701 153.928 152.981 153.532ZM157.409 151.606C157.913 151.03 158.165 150.292 158.165 149.392C158.165 148.492 157.913 147.772 157.409 147.196C156.905 146.62 156.257 146.332 155.447 146.332C154.619 146.332 153.971 146.62 153.485 147.196C152.981 147.772 152.747 148.492 152.747 149.392C152.747 150.292 152.981 151.03 153.485 151.606C153.971 152.182 154.619 152.452 155.447 152.452C156.257 152.452 156.905 152.182 157.409 151.606ZM163.526 141.436C163.742 141.652 163.868 141.94 163.868 142.264C163.868 142.606 163.742 142.894 163.526 143.11C163.292 143.326 163.004 143.434 162.68 143.434C162.338 143.434 162.05 143.326 161.834 143.11C161.6 142.894 161.492 142.606 161.492 142.264C161.492 141.94 161.6 141.652 161.834 141.436C162.05 141.22 162.338 141.094 162.68 141.094C163.004 141.094 163.292 141.22 163.526 141.436ZM161.708 144.784H163.652V154H161.708V144.784ZM172.668 153.208C171.912 153.82 170.958 154.108 169.806 154.108C168.888 154.108 168.078 153.928 167.394 153.532C166.692 153.136 166.152 152.578 165.774 151.858C165.396 151.138 165.216 150.31 165.216 149.374C165.216 148.438 165.396 147.628 165.792 146.908C166.17 146.206 166.71 145.666 167.412 145.27C168.114 144.874 168.924 144.676 169.86 144.676C171.012 144.676 171.948 144.982 172.686 145.594C173.406 146.206 173.874 147.016 174.054 148.06H172.056C171.912 147.538 171.66 147.124 171.264 146.8C170.868 146.494 170.382 146.332 169.806 146.332C169.014 146.332 168.384 146.62 167.916 147.178C167.448 147.754 167.214 148.474 167.214 149.374C167.214 150.292 167.448 151.03 167.916 151.606C168.384 152.182 169.014 152.452 169.806 152.452C170.4 152.452 170.904 152.308 171.3 151.984C171.696 151.66 171.948 151.228 172.074 150.688H174.054C173.874 151.768 173.406 152.596 172.668 153.208ZM177.43 141.436C177.646 141.652 177.772 141.94 177.772 142.264C177.772 142.606 177.646 142.894 177.43 143.11C177.196 143.326 176.908 143.434 176.584 143.434C176.242 143.434 175.954 143.326 175.738 143.11C175.504 142.894 175.396 142.606 175.396 142.264C175.396 141.94 175.504 141.652 175.738 141.436C175.954 141.22 176.242 141.094 176.584 141.094C176.908 141.094 177.196 141.22 177.43 141.436ZM175.612 144.784H177.556V154H175.612V144.784ZM186.986 145.684C187.67 146.368 188.03 147.448 188.03 148.924V154H186.068V149.032C186.068 148.168 185.87 147.502 185.51 147.034C185.132 146.584 184.592 146.35 183.872 146.35C183.098 146.35 182.486 146.62 182.054 147.16C181.622 147.7 181.406 148.42 181.406 149.356V154H179.462V144.784H181.154L181.37 145.99C182.054 145.126 183.044 144.676 184.322 144.676C185.402 144.676 186.302 145.018 186.986 145.684ZM198.744 144.784V153.622C198.744 154.918 198.348 155.926 197.592 156.646C196.818 157.366 195.63 157.708 194.028 157.708C192.768 157.708 191.76 157.438 190.986 156.88C190.194 156.322 189.762 155.53 189.69 154.504H191.67C191.778 155.026 192.066 155.422 192.498 155.71C192.93 155.998 193.488 156.124 194.172 156.124C195.936 156.124 196.818 155.278 196.818 153.55V152.524C196.134 153.532 195.144 154.036 193.812 154.036C192.966 154.036 192.21 153.856 191.562 153.478C190.896 153.1 190.374 152.56 190.014 151.858C189.636 151.156 189.456 150.328 189.456 149.356C189.456 148.438 189.636 147.628 190.014 146.908C190.392 146.206 190.914 145.666 191.58 145.27C192.228 144.874 192.984 144.676 193.812 144.676C194.496 144.676 195.108 144.82 195.612 145.09C196.116 145.378 196.512 145.756 196.836 146.224L197.052 144.784H198.744ZM196.08 151.57C196.566 151.012 196.818 150.292 196.818 149.392C196.818 148.492 196.566 147.754 196.08 147.178C195.576 146.602 194.928 146.314 194.136 146.314C193.326 146.314 192.678 146.602 192.192 147.16C191.688 147.736 191.454 148.456 191.454 149.356C191.454 150.256 191.688 150.994 192.192 151.552C192.678 152.128 193.326 152.398 194.136 152.398C194.928 152.398 195.576 152.128 196.08 151.57Z" fill="#252B42"/>
<rect x="235.75" y="84.5" width="93" height="82" rx="20" fill="white"/>
<g clip-path="url(#clip1_509_425)">
<path d="M295 94.625C295.564 94.625 296.104 94.8489 296.503 95.2474C296.901 95.6459 297.125 96.1864 297.125 96.75V122.25C297.125 122.814 296.901 123.354 296.503 123.753C296.104 124.151 295.564 124.375 295 124.375H269.5C268.936 124.375 268.396 124.151 267.997 123.753C267.599 123.354 267.375 122.814 267.375 122.25V96.75C267.375 96.1864 267.599 95.6459 267.997 95.2474C268.396 94.8489 268.936 94.625 269.5 94.625H295ZM269.5 92.5C268.373 92.5 267.292 92.9478 266.495 93.7448C265.698 94.5418 265.25 95.6228 265.25 96.75V122.25C265.25 123.377 265.698 124.458 266.495 125.255C267.292 126.052 268.373 126.5 269.5 126.5H295C296.127 126.5 297.208 126.052 298.005 125.255C298.802 124.458 299.25 123.377 299.25 122.25V96.75C299.25 95.6228 298.802 94.5418 298.005 93.7448C297.208 92.9478 296.127 92.5 295 92.5H269.5Z" fill="#F10250"/>
<path d="M279.815 102.373C279.914 102.471 279.992 102.589 280.046 102.718C280.099 102.847 280.127 102.985 280.127 103.125C280.127 103.265 280.099 103.403 280.046 103.532C279.992 103.661 279.914 103.778 279.815 103.877L274.19 109.5L279.815 115.123C280.014 115.322 280.126 115.593 280.126 115.875C280.126 116.157 280.014 116.428 279.815 116.627C279.615 116.827 279.345 116.939 279.062 116.939C278.78 116.939 278.51 116.827 278.31 116.627L271.935 110.252C271.836 110.153 271.758 110.036 271.704 109.907C271.651 109.778 271.623 109.64 271.623 109.5C271.623 109.36 271.651 109.222 271.704 109.093C271.758 108.964 271.836 108.846 271.935 108.748L278.31 102.373C278.409 102.274 278.526 102.195 278.655 102.142C278.784 102.088 278.923 102.061 279.062 102.061C279.202 102.061 279.341 102.088 279.47 102.142C279.599 102.195 279.716 102.274 279.815 102.373ZM284.685 102.373C284.586 102.471 284.508 102.589 284.454 102.718C284.401 102.847 284.373 102.985 284.373 103.125C284.373 103.265 284.401 103.403 284.454 103.532C284.508 103.661 284.586 103.778 284.685 103.877L290.31 109.5L284.685 115.123C284.486 115.322 284.374 115.593 284.374 115.875C284.374 116.157 284.486 116.428 284.685 116.627C284.885 116.827 285.155 116.939 285.437 116.939C285.72 116.939 285.99 116.827 286.19 116.627L292.565 110.252C292.664 110.153 292.742 110.036 292.796 109.907C292.849 109.778 292.877 109.64 292.877 109.5C292.877 109.36 292.849 109.222 292.796 109.093C292.742 108.964 292.664 108.846 292.565 108.748L286.19 102.373C286.091 102.274 285.974 102.195 285.845 102.142C285.716 102.088 285.577 102.061 285.437 102.061C285.298 102.061 285.159 102.088 285.03 102.142C284.901 102.195 284.784 102.274 284.685 102.373Z" fill="#F10250"/>
</g>
<path d="M241.213 139.9L243.373 139.882L246.055 149.872L248.863 139.9H250.825L253.543 149.872L256.261 139.9H258.367L254.767 152.5H252.337L249.763 143.23L247.243 152.5H244.813L241.213 139.9ZM267.538 150.808V152.5H266.512C265.9 152.5 265.468 152.374 265.216 152.122C264.946 151.87 264.82 151.51 264.82 151.024C264.118 152.086 263.11 152.608 261.778 152.608C260.734 152.608 259.906 152.374 259.294 151.888C258.664 151.42 258.358 150.754 258.358 149.908C258.358 148.972 258.682 148.234 259.366 147.73C260.032 147.226 261.004 146.956 262.3 146.956H264.622V146.398C264.622 145.894 264.442 145.48 264.082 145.192C263.722 144.904 263.218 144.742 262.588 144.742C262.012 144.742 261.544 144.868 261.184 145.12C260.824 145.372 260.608 145.696 260.536 146.092H258.628C258.718 145.174 259.132 144.454 259.852 143.95C260.572 143.446 261.508 143.176 262.678 143.176C263.902 143.176 264.856 143.464 265.54 144.04C266.206 144.616 266.548 145.444 266.548 146.524V150.16C266.548 150.592 266.746 150.808 267.16 150.808H267.538ZM264.622 148.396H262.21C261.598 148.396 261.148 148.522 260.824 148.756C260.5 148.99 260.338 149.332 260.338 149.782C260.338 150.178 260.482 150.502 260.788 150.736C261.094 150.988 261.508 151.096 262.048 151.096C262.84 151.096 263.47 150.88 263.92 150.448C264.37 150.016 264.604 149.44 264.622 148.72V148.396ZM268.597 139.9H270.541V152.5H268.597V139.9ZM272.446 139.9H274.39V152.5H272.446V139.9ZM276.512 145.426C276.89 144.706 277.412 144.166 278.096 143.77C278.78 143.374 279.554 143.176 280.436 143.176C281.318 143.176 282.092 143.356 282.776 143.716C283.46 144.076 283.982 144.598 284.378 145.246C284.774 145.912 284.972 146.686 284.99 147.568C284.99 147.82 284.972 148.054 284.936 148.306H277.988V148.414C278.024 149.224 278.276 149.854 278.744 150.322C279.194 150.79 279.806 151.024 280.562 151.024C281.156 151.024 281.66 150.898 282.074 150.61C282.47 150.322 282.74 149.926 282.884 149.404H284.828C284.648 150.34 284.198 151.114 283.46 151.708C282.722 152.32 281.804 152.608 280.706 152.608C279.734 152.608 278.906 152.428 278.186 152.032C277.466 151.636 276.926 151.096 276.53 150.376C276.134 149.674 275.954 148.846 275.954 147.91C275.954 146.974 276.134 146.146 276.512 145.426ZM283.01 146.884C282.92 146.218 282.65 145.696 282.2 145.318C281.75 144.94 281.192 144.742 280.508 144.742C279.86 144.742 279.32 144.94 278.852 145.336C278.384 145.732 278.132 146.236 278.06 146.884H283.01ZM287.085 144.994H285.483V143.284H287.085V140.71H289.047V143.284H291.261V144.994H289.047V149.8C289.047 150.16 289.119 150.43 289.263 150.574C289.407 150.718 289.641 150.79 290.001 150.79H291.477V152.5H289.605C288.723 152.5 288.075 152.302 287.679 151.888C287.283 151.492 287.085 150.862 287.085 149.998V144.994ZM296.316 152.5L301.032 139.9H303.498L308.196 152.5H305.982L304.794 149.386H299.628L298.458 152.5H296.316ZM300.204 147.622H304.218L302.202 142.132L300.204 147.622ZM314.456 139.9C315.32 139.9 316.076 140.08 316.742 140.404C317.39 140.728 317.912 141.196 318.272 141.808C318.632 142.42 318.812 143.122 318.812 143.914C318.812 144.724 318.632 145.426 318.272 146.038C317.912 146.65 317.39 147.118 316.742 147.442C316.076 147.766 315.32 147.928 314.456 147.928H311.558V152.5H309.488V139.9H314.456ZM311.558 146.128H314.276C315.014 146.128 315.608 145.93 316.04 145.534C316.472 145.138 316.706 144.598 316.706 143.914C316.706 143.23 316.49 142.69 316.058 142.294C315.626 141.898 315.032 141.7 314.294 141.7H311.558V146.128ZM320.404 139.9H322.474V152.5H320.404V139.9Z" fill="#252B42"/>
<rect x="359.75" y="83.5" width="120" height="84" rx="20" fill="white"/>
<g clip-path="url(#clip2_509_425)">
<path fill-rule="evenodd" clip-rule="evenodd" d="M434.967 91.6685C435.13 91.7693 435.264 91.91 435.358 92.0774C435.451 92.2447 435.5 92.4331 435.5 92.6247V126.375C435.5 126.673 435.381 126.959 435.17 127.17C434.96 127.381 434.673 127.5 434.375 127.5H427.625C427.327 127.5 427.04 127.381 426.83 127.17C426.619 126.959 426.5 126.673 426.5 126.375V123H424.25V126.375C424.25 126.673 424.131 126.959 423.92 127.17C423.71 127.381 423.423 127.5 423.125 127.5H402.875C402.577 127.5 402.29 127.381 402.08 127.17C401.869 126.959 401.75 126.673 401.75 126.375V114C401.75 113.764 401.825 113.534 401.963 113.342C402.101 113.151 402.296 113.008 402.52 112.933L415.25 108.69V101.625C415.25 101.416 415.308 101.211 415.418 101.034C415.527 100.856 415.684 100.713 415.871 100.619L433.871 91.619C434.043 91.533 434.234 91.4925 434.425 91.5011C434.617 91.5098 434.804 91.5674 434.967 91.6685ZM415.25 111.061L404 114.81V125.25H415.25V111.061ZM417.5 125.25H422V121.875C422 121.576 422.119 121.29 422.33 121.079C422.54 120.868 422.827 120.75 423.125 120.75H427.625C427.923 120.75 428.21 120.868 428.42 121.079C428.631 121.29 428.75 121.576 428.75 121.875V125.25H433.25V94.445L417.5 102.32V125.25Z" fill="#F10250"/>
<path d="M406.25 116.25H408.5V118.5H406.25V116.25ZM410.75 116.25H413V118.5H410.75V116.25ZM406.25 120.75H408.5V123H406.25V120.75ZM410.75 120.75H413V123H410.75V120.75ZM419.75 111.75H422V114H419.75V111.75ZM424.25 111.75H426.5V114H424.25V111.75ZM419.75 116.25H422V118.5H419.75V116.25ZM424.25 116.25H426.5V118.5H424.25V116.25ZM428.75 111.75H431V114H428.75V111.75ZM428.75 116.25H431V118.5H428.75V116.25ZM419.75 107.25H422V109.5H419.75V107.25ZM424.25 107.25H426.5V109.5H424.25V107.25ZM428.75 107.25H431V109.5H428.75V107.25ZM419.75 102.75H422V105H419.75V102.75ZM424.25 102.75H426.5V105H424.25V102.75ZM428.75 102.75H431V105H428.75V102.75ZM428.75 98.25H431V100.5H428.75V98.25Z" fill="#F10250"/>
</g>
<path d="M370.913 140.9C372.281 140.9 373.361 141.188 374.117 141.764C374.873 142.34 375.269 143.15 375.269 144.176C375.269 144.932 375.053 145.562 374.657 146.048C374.261 146.534 373.685 146.858 372.929 147.02C374.801 147.344 375.755 148.334 375.755 149.99C375.755 151.088 375.341 151.952 374.531 152.564C373.721 153.194 372.569 153.5 371.075 153.5H366.287V140.9H370.913ZM368.357 146.246H370.967C371.669 146.246 372.209 146.084 372.605 145.76C373.001 145.436 373.199 145.004 373.199 144.428C373.199 143.87 373.001 143.438 372.605 143.114C372.209 142.79 371.669 142.628 370.967 142.628H368.357V146.246ZM368.357 151.754H371.093C371.903 151.754 372.533 151.592 372.965 151.268C373.397 150.944 373.631 150.476 373.631 149.882C373.631 149.27 373.397 148.802 372.965 148.46C372.515 148.136 371.885 147.956 371.093 147.956H368.357V151.754ZM385.741 144.284V153.5H384.031L383.815 152.33C383.113 153.194 382.159 153.608 380.971 153.608C379.891 153.608 379.009 153.284 378.343 152.6C377.659 151.934 377.335 150.854 377.335 149.36V144.284H379.279V149.162C379.279 150.062 379.459 150.746 379.819 151.214C380.179 151.682 380.701 151.916 381.421 151.916C382.159 151.916 382.735 151.646 383.167 151.106C383.581 150.566 383.797 149.81 383.797 148.856V144.284H385.741ZM389.205 150.458C389.241 150.944 389.457 151.34 389.871 151.646C390.285 151.952 390.825 152.096 391.491 152.096C392.067 152.096 392.553 151.988 392.913 151.772C393.273 151.556 393.471 151.25 393.471 150.872C393.471 150.566 393.381 150.332 393.219 150.17C393.039 150.026 392.823 149.918 392.535 149.846C392.247 149.774 391.815 149.702 391.239 149.63C390.429 149.54 389.763 149.414 389.241 149.252C388.719 149.09 388.305 148.838 387.981 148.478C387.657 148.118 387.513 147.65 387.513 147.038C387.513 146.48 387.657 145.976 387.981 145.544C388.305 145.112 388.737 144.77 389.295 144.518C389.853 144.284 390.483 144.158 391.203 144.158C392.355 144.158 393.309 144.428 394.029 144.932C394.749 145.454 395.145 146.174 395.217 147.11H393.327C393.273 146.696 393.057 146.354 392.697 146.084C392.319 145.814 391.851 145.67 391.293 145.67C390.717 145.67 390.267 145.778 389.925 145.994C389.565 146.21 389.403 146.516 389.403 146.876C389.403 147.164 389.475 147.362 389.655 147.506C389.835 147.65 390.051 147.74 390.321 147.794C390.573 147.848 391.005 147.902 391.599 147.974C392.391 148.064 393.057 148.19 393.597 148.37C394.137 148.55 394.569 148.82 394.893 149.198C395.217 149.576 395.379 150.08 395.379 150.728C395.379 151.304 395.199 151.826 394.875 152.258C394.533 152.69 394.065 153.032 393.489 153.266C392.895 153.5 392.229 153.608 391.509 153.608C390.267 153.608 389.259 153.338 388.503 152.78C387.747 152.222 387.351 151.448 387.333 150.458H389.205ZM398.774 140.936C398.99 141.152 399.116 141.44 399.116 141.764C399.116 142.106 398.99 142.394 398.774 142.61C398.54 142.826 398.252 142.934 397.928 142.934C397.586 142.934 397.298 142.826 397.082 142.61C396.848 142.394 396.74 142.106 396.74 141.764C396.74 141.44 396.848 141.152 397.082 140.936C397.298 140.72 397.586 140.594 397.928 140.594C398.252 140.594 398.54 140.72 398.774 140.936ZM396.956 144.284H398.9V153.5H396.956V144.284ZM408.33 145.184C409.014 145.868 409.374 146.948 409.374 148.424V153.5H407.412V148.532C407.412 147.668 407.214 147.002 406.854 146.534C406.476 146.084 405.936 145.85 405.216 145.85C404.442 145.85 403.83 146.12 403.398 146.66C402.966 147.2 402.75 147.92 402.75 148.856V153.5H400.806V144.284H402.498L402.714 145.49C403.398 144.626 404.388 144.176 405.666 144.176C406.746 144.176 407.646 144.518 408.33 145.184ZM411.358 146.426C411.736 145.706 412.258 145.166 412.942 144.77C413.626 144.374 414.4 144.176 415.282 144.176C416.164 144.176 416.938 144.356 417.622 144.716C418.306 145.076 418.828 145.598 419.224 146.246C419.62 146.912 419.818 147.686 419.836 148.568C419.836 148.82 419.818 149.054 419.782 149.306H412.833V149.414C412.87 150.224 413.122 150.854 413.59 151.322C414.04 151.79 414.652 152.024 415.408 152.024C416.002 152.024 416.506 151.898 416.92 151.61C417.316 151.322 417.586 150.926 417.73 150.404H419.674C419.494 151.34 419.044 152.114 418.306 152.708C417.568 153.32 416.65 153.608 415.552 153.608C414.58 153.608 413.752 153.428 413.032 153.032C412.312 152.636 411.772 152.096 411.375 151.376C410.98 150.674 410.8 149.846 410.8 148.91C410.8 147.974 410.98 147.146 411.358 146.426ZM417.856 147.884C417.766 147.218 417.496 146.696 417.046 146.318C416.596 145.94 416.038 145.742 415.354 145.742C414.706 145.742 414.166 145.94 413.698 146.336C413.23 146.732 412.978 147.236 412.906 147.884H417.856ZM422.902 150.458C422.938 150.944 423.154 151.34 423.568 151.646C423.982 151.952 424.522 152.096 425.188 152.096C425.764 152.096 426.25 151.988 426.61 151.772C426.97 151.556 427.168 151.25 427.168 150.872C427.168 150.566 427.078 150.332 426.916 150.17C426.736 150.026 426.52 149.918 426.232 149.846C425.944 149.774 425.512 149.702 424.936 149.63C424.126 149.54 423.46 149.414 422.938 149.252C422.416 149.09 422.002 148.838 421.678 148.478C421.354 148.118 421.21 147.65 421.21 147.038C421.21 146.48 421.354 145.976 421.678 145.544C422.002 145.112 422.434 144.77 422.992 144.518C423.55 144.284 424.18 144.158 424.9 144.158C426.052 144.158 427.006 144.428 427.726 144.932C428.446 145.454 428.842 146.174 428.914 147.11H427.024C426.97 146.696 426.754 146.354 426.394 146.084C426.016 145.814 425.548 145.67 424.99 145.67C424.414 145.67 423.964 145.778 423.622 145.994C423.262 146.21 423.1 146.516 423.1 146.876C423.1 147.164 423.172 147.362 423.352 147.506C423.532 147.65 423.748 147.74 424.018 147.794C424.27 147.848 424.702 147.902 425.296 147.974C426.088 148.064 426.754 148.19 427.294 148.37C427.834 148.55 428.266 148.82 428.59 149.198C428.914 149.576 429.076 150.08 429.076 150.728C429.076 151.304 428.896 151.826 428.572 152.258C428.23 152.69 427.762 153.032 427.186 153.266C426.592 153.5 425.926 153.608 425.206 153.608C423.964 153.608 422.956 153.338 422.2 152.78C421.444 152.222 421.048 151.448 421.03 150.458H422.902ZM432.025 150.458C432.061 150.944 432.277 151.34 432.691 151.646C433.105 151.952 433.645 152.096 434.311 152.096C434.887 152.096 435.373 151.988 435.733 151.772C436.093 151.556 436.291 151.25 436.291 150.872C436.291 150.566 436.201 150.332 436.039 150.17C435.859 150.026 435.643 149.918 435.355 149.846C435.067 149.774 434.635 149.702 434.059 149.63C433.249 149.54 432.583 149.414 432.061 149.252C431.539 149.09 431.125 148.838 430.801 148.478C430.477 148.118 430.333 147.65 430.333 147.038C430.333 146.48 430.477 145.976 430.801 145.544C431.125 145.112 431.557 144.77 432.115 144.518C432.673 144.284 433.303 144.158 434.023 144.158C435.175 144.158 436.129 144.428 436.849 144.932C437.569 145.454 437.965 146.174 438.037 147.11H436.147C436.093 146.696 435.877 146.354 435.517 146.084C435.139 145.814 434.671 145.67 434.113 145.67C433.537 145.67 433.087 145.778 432.745 145.994C432.385 146.21 432.223 146.516 432.223 146.876C432.223 147.164 432.295 147.362 432.475 147.506C432.655 147.65 432.871 147.74 433.141 147.794C433.393 147.848 433.825 147.902 434.419 147.974C435.211 148.064 435.877 148.19 436.417 148.37C436.957 148.55 437.389 148.82 437.713 149.198C438.037 149.576 438.199 150.08 438.199 150.728C438.199 151.304 438.019 151.826 437.695 152.258C437.353 152.69 436.885 153.032 436.309 153.266C435.715 153.5 435.049 153.608 434.329 153.608C433.087 153.608 432.079 153.338 431.323 152.78C430.567 152.222 430.171 151.448 430.153 150.458H432.025ZM444.58 140.9H446.65V153.5H444.58V140.9ZM456.283 145.184C456.967 145.868 457.327 146.948 457.327 148.424V153.5H455.365V148.532C455.365 147.668 455.167 147.002 454.807 146.534C454.429 146.084 453.889 145.85 453.169 145.85C452.395 145.85 451.783 146.12 451.351 146.66C450.919 147.2 450.703 147.92 450.703 148.856V153.5H448.759V144.284H450.451L450.667 145.49C451.351 144.626 452.341 144.176 453.619 144.176C454.699 144.176 455.599 144.518 456.283 145.184ZM459.689 144.284V143.366C459.689 142.556 459.887 141.944 460.319 141.53C460.733 141.116 461.381 140.9 462.263 140.9H464.135V142.61H462.533C462.209 142.61 461.993 142.682 461.849 142.826C461.705 142.97 461.651 143.204 461.651 143.51V144.284H464.117V145.994H461.651V153.5H459.689V145.994H458.087V144.284H459.689ZM466.592 153.032C465.872 152.636 465.332 152.096 464.936 151.376C464.54 150.656 464.36 149.828 464.36 148.892C464.36 147.974 464.54 147.164 464.936 146.444C465.332 145.724 465.872 145.166 466.592 144.77C467.312 144.374 468.122 144.176 469.058 144.176C469.976 144.176 470.786 144.374 471.506 144.77C472.226 145.166 472.766 145.724 473.162 146.444C473.558 147.164 473.756 147.974 473.756 148.892C473.756 149.828 473.558 150.656 473.162 151.376C472.766 152.096 472.226 152.636 471.506 153.032C470.786 153.428 469.976 153.608 469.058 153.608C468.122 153.608 467.312 153.428 466.592 153.032ZM471.02 151.106C471.524 150.53 471.776 149.792 471.776 148.892C471.776 147.992 471.524 147.272 471.02 146.696C470.516 146.12 469.868 145.832 469.058 145.832C468.23 145.832 467.582 146.12 467.096 146.696C466.592 147.272 466.358 147.992 466.358 148.892C466.358 149.792 466.592 150.53 467.096 151.106C467.582 151.682 468.23 151.952 469.058 151.952C469.868 151.952 470.516 151.682 471.02 151.106Z" fill="#252B42"/>
</g>
<defs>
<filter id="filter0_d_509_425" x="0.5" y="0" width="600.5" height="275" filterUnits="userSpaceOnUse" color-interpolation-filters="sRGB">
<feFlood flood-opacity="0" result="BackgroundImageFix"/>
<feColorMatrix in="SourceAlpha" type="matrix" values="0 0 0 0 0 0 0 0 0 0 0 0 0 0 0 0 0 0 127 0" result="hardAlpha"/>
<feOffset dy="4"/>
<feGaussianBlur stdDeviation="2"/>
<feComposite in2="hardAlpha" operator="out"/>
<feColorMatrix type="matrix" values="0 0 0 0 0 0 0 0 0 0 0 0 0 0 0 0 0 0 0.25 0"/>
<feBlend mode="normal" in2="BackgroundImageFix" result="effect1_dropShadow_509_425"/>
<feBlend mode="normal" in="SourceGraphic" in2="effect1_dropShadow_509_425" result="shape"/>
</filter>
<clipPath id="clip0_509_425">
<rect width="37" height="37" fill="white" transform="translate(144.75 91)"/>
</clipPath>
<clipPath id="clip1_509_425">
<rect width="34" height="34" fill="white" transform="translate(265.25 92.5)"/>
</clipPath>
<clipPath id="clip2_509_425">
<rect width="36" height="36" fill="white" transform="translate(401.75 91.5)"/>
</clipPath>
</defs>
</svg>
