<svg width="35" height="35" viewBox="0 0 35 35" fill="none" xmlns="http://www.w3.org/2000/svg">
<g clip-path="url(#clip0_509_437)">
<path d="M30 2.625C30.5636 2.625 31.1041 2.84888 31.5026 3.2474C31.9011 3.64591 32.125 4.18641 32.125 4.75V30.25C32.125 30.8136 31.9011 31.3541 31.5026 31.7526C31.1041 32.1511 30.5636 32.375 30 32.375H4.5C3.93641 32.375 3.39591 32.1511 2.9974 31.7526C2.59888 31.3541 2.375 30.8136 2.375 30.25V4.75C2.375 4.18641 2.59888 3.64591 2.9974 3.2474C3.39591 2.84888 3.93641 2.625 4.5 2.625H30ZM4.5 0.5C3.37283 0.5 2.29183 0.947767 1.4948 1.7448C0.697767 2.54183 0.25 3.62283 0.25 4.75L0.25 30.25C0.25 31.3772 0.697767 32.4582 1.4948 33.2552C2.29183 34.0522 3.37283 34.5 4.5 34.5H30C31.1272 34.5 32.2082 34.0522 33.0052 33.2552C33.8022 32.4582 34.25 31.3772 34.25 30.25V4.75C34.25 3.62283 33.8022 2.54183 33.0052 1.7448C32.2082 0.947767 31.1272 0.5 30 0.5L4.5 0.5Z" fill="#F10250"/>
<path d="M14.8147 10.3727C14.9136 10.4714 14.9921 10.5886 15.0457 10.7177C15.0993 10.8468 15.1268 10.9852 15.1268 11.1249C15.1268 11.2647 15.0993 11.4031 15.0457 11.5322C14.9921 11.6613 14.9136 11.7785 14.8147 11.8772L9.18982 17.4999L14.8147 23.1227C15.0142 23.3222 15.1263 23.5928 15.1263 23.8749C15.1263 24.1571 15.0142 24.4277 14.8147 24.6272C14.6152 24.8267 14.3446 24.9388 14.0624 24.9388C13.7803 24.9388 13.5097 24.8267 13.3102 24.6272L6.9352 18.2522C6.83625 18.1535 6.75775 18.0362 6.70418 17.9072C6.65062 17.7781 6.62305 17.6397 6.62305 17.4999C6.62305 17.3602 6.65062 17.2218 6.70418 17.0927C6.75775 16.9636 6.83625 16.8464 6.9352 16.7477L13.3102 10.3727C13.4089 10.2737 13.5261 10.1952 13.6552 10.1417C13.7843 10.0881 13.9227 10.0605 14.0624 10.0605C14.2022 10.0605 14.3406 10.0881 14.4697 10.1417C14.5988 10.1952 14.716 10.2737 14.8147 10.3727ZM19.6852 10.3727C19.5862 10.4714 19.5077 10.5886 19.4542 10.7177C19.4006 10.8468 19.373 10.9852 19.373 11.1249C19.373 11.2647 19.4006 11.4031 19.4542 11.5322C19.5077 11.6613 19.5862 11.7785 19.6852 11.8772L25.3101 17.4999L19.6852 23.1227C19.4857 23.3222 19.3736 23.5928 19.3736 23.8749C19.3736 24.1571 19.4857 24.4277 19.6852 24.6272C19.8847 24.8267 20.1553 24.9388 20.4374 24.9388C20.7196 24.9388 20.9902 24.8267 21.1897 24.6272L27.5647 18.2522C27.6636 18.1535 27.7421 18.0362 27.7957 17.9072C27.8493 17.7781 27.8768 17.6397 27.8768 17.4999C27.8768 17.3602 27.8493 17.2218 27.7957 17.0927C27.7421 16.9636 27.6636 16.8464 27.5647 16.7477L21.1897 10.3727C21.091 10.2737 20.9738 10.1952 20.8447 10.1417C20.7156 10.0881 20.5772 10.0605 20.4374 10.0605C20.2977 10.0605 20.1593 10.0881 20.0302 10.1417C19.9011 10.1952 19.7839 10.2737 19.6852 10.3727Z" fill="#F10250"/>
</g>
<defs>
<clipPath id="clip0_509_437">
<rect width="34" height="34" fill="white" transform="translate(0.25 0.5)"/>
</clipPath>
</defs>
</svg>
