<svg width="28" height="30" viewBox="0 0 28 30" fill="none" xmlns="http://www.w3.org/2000/svg">
<path d="M26.7699 24.091C26.0883 22.4765 25.0991 21.01 23.8576 19.7731C22.6198 18.5327 21.1535 17.5438 19.5397 16.8608C19.5252 16.8536 19.5108 16.85 19.4963 16.8428C21.7474 15.2168 23.2108 12.5683 23.2108 9.58008C23.2108 4.62988 19.2 0.619141 14.2498 0.619141C9.29965 0.619141 5.28891 4.62988 5.28891 9.58008C5.28891 12.5683 6.75229 15.2168 9.00336 16.8464C8.98891 16.8536 8.97446 16.8572 8.96 16.8645C7.34125 17.5474 5.88871 18.5266 4.64213 19.7768C3.40173 21.0145 2.41275 22.4808 1.72983 24.0946C1.05892 25.6745 0.697086 27.3684 0.663909 29.0846C0.662944 29.1231 0.669708 29.1615 0.683803 29.1974C0.697897 29.2333 0.719036 29.266 0.745975 29.2937C0.772914 29.3213 0.805106 29.3432 0.840657 29.3582C0.876207 29.3732 0.914395 29.3809 0.952971 29.3809H3.12094C3.27992 29.3809 3.40639 29.2544 3.41 29.099C3.48227 26.3096 4.60239 23.6972 6.58246 21.7171C8.63119 19.6684 11.352 18.541 14.2498 18.541C17.1477 18.541 19.8685 19.6684 21.9172 21.7171C23.8973 23.6972 25.0174 26.3096 25.0897 29.099C25.0933 29.258 25.2198 29.3809 25.3788 29.3809H27.5467C27.5853 29.3809 27.6235 29.3732 27.659 29.3582C27.6946 29.3432 27.7268 29.3213 27.7537 29.2937C27.7807 29.266 27.8018 29.2333 27.8159 29.1974C27.83 29.1615 27.8368 29.1231 27.8358 29.0846C27.7997 27.3574 27.4419 25.6772 26.7699 24.091ZM14.2498 15.7949C12.5914 15.7949 11.0304 15.1481 9.8561 13.9738C8.68178 12.7995 8.035 11.2386 8.035 9.58008C8.035 7.92158 8.68178 6.36064 9.8561 5.18633C11.0304 4.01201 12.5914 3.36523 14.2498 3.36523C15.9083 3.36523 17.4693 4.01201 18.6436 5.18633C19.8179 6.36064 20.4647 7.92158 20.4647 9.58008C20.4647 11.2386 19.8179 12.7995 18.6436 13.9738C17.4693 15.1481 15.9083 15.7949 14.2498 15.7949Z" fill="black"/>
</svg>
