<svg width="19" height="18" viewBox="0 0 19 18" fill="none" xmlns="http://www.w3.org/2000/svg">
<path fill-rule="evenodd" clip-rule="evenodd" d="M18.25 0.75C18.25 0.551088 18.171 0.360322 18.0303 0.21967C17.8896 0.0790178 17.6989 0 17.5 0H8.49997C8.30106 0 8.11029 0.0790178 7.96964 0.21967C7.82899 0.360322 7.74997 0.551088 7.74997 0.75C7.74997 0.948912 7.82899 1.13968 7.96964 1.28033C8.11029 1.42098 8.30106 1.5 8.49997 1.5H15.6895L0.468971 16.719C0.399239 16.7887 0.343925 16.8715 0.306186 16.9626C0.268447 17.0537 0.249023 17.1514 0.249023 17.25C0.249023 17.3486 0.268447 17.4463 0.306186 17.5374C0.343925 17.6285 0.399239 17.7113 0.468971 17.781C0.538703 17.8507 0.621487 17.906 0.712596 17.9438C0.803705 17.9815 0.901355 18.0009 0.999971 18.0009C1.09859 18.0009 1.19624 17.9815 1.28735 17.9438C1.37845 17.906 1.46124 17.8507 1.53097 17.781L16.75 2.5605V9.75C16.75 9.94891 16.829 10.1397 16.9696 10.2803C17.1103 10.421 17.3011 10.5 17.5 10.5C17.6989 10.5 17.8896 10.421 18.0303 10.2803C18.171 10.1397 18.25 9.94891 18.25 9.75V0.75Z" fill="#F10250"/>
</svg>
