<svg width="20" height="20" viewBox="0 0 20 20" fill="none" xmlns="http://www.w3.org/2000/svg">
<path d="M18.9531 8.82833C19.6773 8.82833 19.9796 7.89786 19.3914 7.46895L10.4406 0.958014C10.3127 0.864362 10.1584 0.813873 9.99995 0.813873C9.84149 0.813873 9.68715 0.864362 9.55932 0.958014L0.608542 7.46895C0.0202604 7.89551 0.322604 8.82833 1.04917 8.82833H2.49995V17.594H0.812448C0.709323 17.594 0.624948 17.6783 0.624948 17.7815V19.0002C0.624948 19.1033 0.709323 19.1877 0.812448 19.1877H19.1874C19.2906 19.1877 19.3749 19.1033 19.3749 19.0002V17.7815C19.3749 17.6783 19.2906 17.594 19.1874 17.594H17.4999V8.82833H18.9531ZM9.99995 2.61036L16.3539 7.23223H3.64604L9.99995 2.61036ZM4.18745 8.82833H6.92964V17.594H4.18745V8.82833ZM8.61714 8.82833H11.3593V17.594H8.61714V8.82833ZM15.8124 17.594H13.0468V8.82833H15.8124V17.594Z" fill="black"/>
</svg>
