<svg width="20" height="18" viewBox="0 0 20 18" fill="none" xmlns="http://www.w3.org/2000/svg">
<path fill-rule="evenodd" clip-rule="evenodd" d="M10.9091 15.75C10.9091 15.9489 10.8516 16.1397 10.7493 16.2803C10.647 16.421 10.5083 16.5 10.3636 16.5H1.63636C1.4917 16.5 1.35296 16.421 1.25067 16.2803C1.14838 16.1397 1.09091 15.9489 1.09091 15.75V2.25C1.09091 2.05109 1.14838 1.86032 1.25067 1.71967C1.35296 1.57902 1.4917 1.5 1.63636 1.5H10.3636C10.5083 1.5 10.647 1.57902 10.7493 1.71967C10.8516 1.86032 10.9091 2.05109 10.9091 2.25V5.25C10.9091 5.44891 10.9666 5.63968 11.0689 5.78033C11.1711 5.92098 11.3099 6 11.4545 6C11.5992 6 11.7379 5.92098 11.8402 5.78033C11.9425 5.63968 12 5.44891 12 5.25V2.25C12 1.65326 11.8276 1.08097 11.5207 0.65901C11.2138 0.237053 10.7976 0 10.3636 0H1.63636C1.20237 0 0.786158 0.237053 0.47928 0.65901C0.172402 1.08097 0 1.65326 0 2.25L0 15.75C0 16.3467 0.172402 16.919 0.47928 17.341C0.786158 17.7629 1.20237 18 1.63636 18H10.3636C10.7976 18 11.2138 17.7629 11.5207 17.341C11.8276 16.919 12 16.3467 12 15.75V12.75C12 12.5511 11.9425 12.3603 11.8402 12.2197C11.7379 12.079 11.5992 12 11.4545 12C11.3099 12 11.1711 12.079 11.0689 12.2197C10.9666 12.3603 10.9091 12.5511 10.9091 12.75V15.75Z" fill="#F10250"/>
<path fill-rule="evenodd" clip-rule="evenodd" d="M18.781 9.78195C18.8508 9.71228 18.9063 9.62951 18.9441 9.5384C18.9819 9.44728 19.0013 9.3496 19.0013 9.25095C19.0013 9.1523 18.9819 9.05461 18.9441 8.9635C18.9063 8.87238 18.8508 8.78962 18.781 8.71995L14.281 4.21995C14.1402 4.07912 13.9492 4 13.75 4C13.5508 4 13.3598 4.07912 13.219 4.21995C13.0782 4.36078 12.9991 4.55178 12.9991 4.75095C12.9991 4.95011 13.0782 5.14112 13.219 5.28195L16.4395 8.50095H3.25C3.05109 8.50095 2.86032 8.57997 2.71967 8.72062C2.57902 8.86127 2.5 9.05203 2.5 9.25095C2.5 9.44986 2.57902 9.64063 2.71967 9.78128C2.86032 9.92193 3.05109 10.0009 3.25 10.0009H16.4395L13.219 13.2199C13.0782 13.3608 12.9991 13.5518 12.9991 13.7509C12.9991 13.9501 13.0782 14.1411 13.219 14.2819C13.3598 14.4228 13.5508 14.5019 13.75 14.5019C13.9492 14.5019 14.1402 14.4228 14.281 14.2819L18.781 9.78195V9.78195Z" fill="#F10250"/>
</svg>
