<svg width="19" height="18" viewBox="0 0 19 18" fill="none" xmlns="http://www.w3.org/2000/svg">
<path fill-rule="evenodd" clip-rule="evenodd" d="M8.09091 2.25C8.09091 2.05109 8.14838 1.86032 8.25067 1.71967C8.35296 1.57902 8.4917 1.5 8.63636 1.5H17.3636C17.5083 1.5 17.647 1.57902 17.7493 1.71967C17.8516 1.86032 17.9091 2.05109 17.9091 2.25V15.75C17.9091 15.9489 17.8516 16.1397 17.7493 16.2803C17.647 16.421 17.5083 16.5 17.3636 16.5H8.63636C8.4917 16.5 8.35296 16.421 8.25067 16.2803C8.14838 16.1397 8.09091 15.9489 8.09091 15.75V12.75C8.09091 12.5511 8.03344 12.3603 7.93115 12.2197C7.82886 12.079 7.69012 12 7.54545 12C7.40079 12 7.26205 12.079 7.15976 12.2197C7.05747 12.3603 7 12.5511 7 12.75V15.75C7 16.3467 7.1724 16.919 7.47928 17.341C7.78616 17.7629 8.20237 18 8.63636 18H17.3636C17.7976 18 18.2138 17.7629 18.5207 17.341C18.8276 16.919 19 16.3467 19 15.75V2.25C19 1.65326 18.8276 1.08097 18.5207 0.65901C18.2138 0.237053 17.7976 0 17.3636 0H8.63636C8.20237 0 7.78616 0.237053 7.47928 0.65901C7.1724 1.08097 7 1.65326 7 2.25V5.25C7 5.44891 7.05747 5.63968 7.15976 5.78033C7.26205 5.92098 7.40079 6 7.54545 6C7.69012 6 7.82886 5.92098 7.93115 5.78033C8.03344 5.63968 8.09091 5.44891 8.09091 5.25V2.25Z" fill="#F10250"/>
<path fill-rule="evenodd" clip-rule="evenodd" d="M16.281 9.78195C16.3508 9.71228 16.4063 9.62951 16.4441 9.5384C16.4819 9.44728 16.5013 9.3496 16.5013 9.25095C16.5013 9.1523 16.4819 9.05461 16.4441 8.9635C16.4063 8.87238 16.3508 8.78962 16.281 8.71995L11.781 4.21995C11.7113 4.15022 11.6285 4.0949 11.5374 4.05716C11.4463 4.01942 11.3486 4 11.25 4C11.1514 4 11.0537 4.01942 10.9626 4.05716C10.8715 4.0949 10.7887 4.15022 10.719 4.21995C10.6493 4.28968 10.594 4.37246 10.5562 4.46357C10.5185 4.55468 10.4991 4.65233 10.4991 4.75095C10.4991 4.84956 10.5185 4.94721 10.5562 5.03832C10.594 5.12943 10.6493 5.21222 10.719 5.28195L13.9395 8.50095H0.75C0.551088 8.50095 0.360322 8.57997 0.21967 8.72062C0.0790176 8.86127 0 9.05203 0 9.25095C0 9.44986 0.0790176 9.64063 0.21967 9.78128C0.360322 9.92193 0.551088 10.0009 0.75 10.0009H13.9395L10.719 13.2199C10.6493 13.2897 10.594 13.3725 10.5562 13.4636C10.5185 13.5547 10.4991 13.6523 10.4991 13.7509C10.4991 13.8496 10.5185 13.9472 10.5562 14.0383C10.594 14.1294 10.6493 14.2122 10.719 14.2819C10.7887 14.3517 10.8715 14.407 10.9626 14.4447C11.0537 14.4825 11.1514 14.5019 11.25 14.5019C11.3486 14.5019 11.4463 14.4825 11.5374 14.4447C11.6285 14.407 11.7113 14.3517 11.781 14.2819L16.281 9.78195V9.78195Z" fill="#F10250"/>
</svg>
