<svg width="18" height="18" viewBox="0 0 18 18" fill="none" xmlns="http://www.w3.org/2000/svg">
<path d="M0 5.61331C0.000274676 6.9164 0.451929 8.17908 1.27801 9.18622C2.10409 10.1934 3.25349 10.8826 4.53037 11.1366C4.6031 10.3299 4.80995 9.5409 5.14238 8.80232C4.15688 8.46901 3.5235 7.71229 3.375 6.63803H2.8125V6.15833H3.33675V5.66962C3.33675 5.61782 3.33675 5.56489 3.34125 5.5176H2.8125V5.03677H3.38737C3.6405 3.63144 4.73963 2.79816 6.39113 2.79816C6.74663 2.79816 7.05487 2.83307 7.3125 2.89387V3.71928C7.01161 3.65227 6.70382 3.62127 6.39563 3.62694C5.36175 3.62694 4.66537 4.15169 4.44487 5.03677H6.6015V5.5176H4.374C4.37062 5.5694 4.37062 5.62683 4.37062 5.68313V6.15833H6.6015V6.63916H4.42125C4.554 7.31705 4.94775 7.799 5.55188 8.02309C6.14423 7.04112 6.95888 6.21225 7.9301 5.60334C8.90132 4.99444 10.0019 4.62254 11.1431 4.51766C10.8672 3.15007 10.094 1.93364 8.97337 1.10401C7.85269 0.274383 6.46428 -0.109404 5.07708 0.0269937C3.68988 0.163392 2.40262 0.810266 1.46465 1.84231C0.526683 2.87436 0.00476659 4.21813 0 5.61331H0ZM18 11.8067C18 13.4492 17.3481 15.0245 16.1877 16.186C15.0273 17.3475 13.4535 18 11.8125 18C10.1715 18 8.59766 17.3475 7.43728 16.186C6.2769 15.0245 5.625 13.4492 5.625 11.8067C5.625 10.1641 6.2769 8.58878 7.43728 7.4273C8.59766 6.26583 10.1715 5.61331 11.8125 5.61331C13.4535 5.61331 15.0273 6.26583 16.1877 7.4273C17.3481 8.58878 18 10.1641 18 11.8067V11.8067ZM9.28125 13.2953C9.35887 14.2356 10.1205 14.9675 11.4907 15.0542V15.7479H12.0983V15.0497C13.5146 14.9529 14.3438 14.2164 14.3438 13.1467C14.3438 12.1726 13.7104 11.6715 12.5775 11.4125L12.0983 11.2999V9.41265C12.7058 9.48021 13.0927 9.80339 13.185 10.2516H14.2515C14.1728 9.34621 13.3751 8.63792 12.0983 8.56022V7.86544H11.4907V8.57373C10.2802 8.68972 9.45675 9.39801 9.45675 10.4002C9.45675 11.2864 10.0688 11.8506 11.088 12.0814L11.4907 12.1771V14.1815C10.8675 14.0914 10.4558 13.7581 10.3624 13.2953H9.28125ZM11.4863 11.1614C10.8878 11.0263 10.5638 10.7515 10.5638 10.3371C10.5638 9.87546 10.9136 9.52751 11.4907 9.42616V11.1603H11.4851L11.4863 11.1614ZM12.186 12.337C12.9116 12.5003 13.2469 12.7649 13.2469 13.2334C13.2469 13.7671 12.8306 14.1342 12.0994 14.2018V12.3168L12.186 12.337Z" fill="#F10250"/>
</svg>
