<svg width="18" height="18" viewBox="0 0 18 18" fill="none" xmlns="http://www.w3.org/2000/svg">
<path d="M17.2148 11.0455H0.195914C0.0883084 11.0455 0.000267241 11.1375 0.000267241 11.25V12.7841C0.000267241 12.8966 0.0883084 12.9886 0.195914 12.9886H14.9966L11.4676 17.6676C11.3674 17.8006 11.4578 18 11.6217 18H13.3948C13.5146 18 13.6271 17.9438 13.7029 17.844L17.831 12.3699C18.2346 11.833 17.8702 11.0455 17.2148 11.0455V11.0455ZM17.8041 5.01136H3.00345L6.53243 0.332386C6.6327 0.199432 6.54221 0 6.37836 0H4.60531C4.48547 0 4.37298 0.0562502 4.29717 0.155966L0.169013 5.63011C-0.234509 6.16705 0.129883 6.95455 0.782855 6.95455H17.8041C17.9118 6.95455 17.9998 6.8625 17.9998 6.75V5.21591C17.9998 5.10341 17.9118 5.01136 17.8041 5.01136Z" fill="#F10250"/>
</svg>
