<svg width="18" height="18" viewBox="0 0 18 18" fill="none" xmlns="http://www.w3.org/2000/svg">
<path d="M0.54 6H1.8C1.899 6 1.98 5.91563 1.98 5.8125V1.6875H5.94C6.039 1.6875 6.12 1.60313 6.12 1.5V0.1875C6.12 0.084375 6.039 0 5.94 0H1.89C1.044 0 0.36 0.7125 0.36 1.59375V5.8125C0.36 5.91563 0.441 6 0.54 6ZM12.06 1.6875H16.02V5.8125C16.02 5.91563 16.101 6 16.2 6H17.46C17.559 6 17.64 5.91563 17.64 5.8125V1.59375C17.64 0.7125 16.956 0 16.11 0H12.06C11.961 0 11.88 0.084375 11.88 0.1875V1.5C11.88 1.60313 11.961 1.6875 12.06 1.6875ZM5.94 16.3125H1.98V12.1875C1.98 12.0844 1.899 12 1.8 12H0.54C0.441 12 0.36 12.0844 0.36 12.1875V16.4062C0.36 17.2875 1.044 18 1.89 18H5.94C6.039 18 6.12 17.9156 6.12 17.8125V16.5C6.12 16.3969 6.039 16.3125 5.94 16.3125ZM17.46 12H16.2C16.101 12 16.02 12.0844 16.02 12.1875V16.3125H12.06C11.961 16.3125 11.88 16.3969 11.88 16.5V17.8125C11.88 17.9156 11.961 18 12.06 18H16.11C16.956 18 17.64 17.2875 17.64 16.4062V12.1875C17.64 12.0844 17.559 12 17.46 12ZM17.82 8.15625H0.18C0.081 8.15625 0 8.24062 0 8.34375V9.65625C0 9.75938 0.081 9.84375 0.18 9.84375H17.82C17.919 9.84375 18 9.75938 18 9.65625V8.34375C18 8.24062 17.919 8.15625 17.82 8.15625Z" fill="#F10250"/>
</svg>
