<svg width="25" height="24" viewBox="0 0 25 24" fill="none" xmlns="http://www.w3.org/2000/svg">
<path d="M3.6875 9H5C5.10312 9 5.1875 8.91563 5.1875 8.8125V4.6875H9.3125C9.41563 4.6875 9.5 4.60312 9.5 4.5V3.1875C9.5 3.08437 9.41563 3 9.3125 3H5.09375C4.2125 3 3.5 3.7125 3.5 4.59375V8.8125C3.5 8.91563 3.58437 9 3.6875 9ZM15.6875 4.6875H19.8125V8.8125C19.8125 8.91563 19.8969 9 20 9H21.3125C21.4156 9 21.5 8.91563 21.5 8.8125V4.59375C21.5 3.7125 20.7875 3 19.9062 3H15.6875C15.5844 3 15.5 3.08437 15.5 3.1875V4.5C15.5 4.60312 15.5844 4.6875 15.6875 4.6875ZM9.3125 19.3125H5.1875V15.1875C5.1875 15.0844 5.10312 15 5 15H3.6875C3.58437 15 3.5 15.0844 3.5 15.1875V19.4062C3.5 20.2875 4.2125 21 5.09375 21H9.3125C9.41563 21 9.5 20.9156 9.5 20.8125V19.5C9.5 19.3969 9.41563 19.3125 9.3125 19.3125ZM21.3125 15H20C19.8969 15 19.8125 15.0844 19.8125 15.1875V19.3125H15.6875C15.5844 19.3125 15.5 19.3969 15.5 19.5V20.8125C15.5 20.9156 15.5844 21 15.6875 21H19.9062C20.7875 21 21.5 20.2875 21.5 19.4062V15.1875C21.5 15.0844 21.4156 15 21.3125 15ZM21.6875 11.1562H3.3125C3.20937 11.1562 3.125 11.2406 3.125 11.3438V12.6562C3.125 12.7594 3.20937 12.8438 3.3125 12.8438H21.6875C21.7906 12.8438 21.875 12.7594 21.875 12.6562V11.3438C21.875 11.2406 21.7906 11.1562 21.6875 11.1562Z" fill="#F10250"/>
</svg>
